<svg width="397" height="369" viewBox="0 0 397 369" fill="none" xmlns="http://www.w3.org/2000/svg">
<rect x="21" y="1" width="355" height="62" rx="9" fill="#F1F4FF"/>
<rect x="21" y="1" width="355" height="62" rx="9" stroke="#1F41BB" stroke-width="2"/>
<path d="M43.3756 28.288V31.664H47.2156V33.072H43.3756V36.576H47.6956V38H41.5516V26.864H47.6956V28.288H43.3756ZM60.7742 29.04C61.4355 29.04 62.0275 29.184 62.5502 29.472C63.0729 29.76 63.4835 30.1867 63.7822 30.752C64.0915 31.3173 64.2462 32 64.2462 32.8V38H62.4222V33.072C62.4222 32.2827 62.2249 31.68 61.8302 31.264C61.4355 30.8373 60.8969 30.624 60.2142 30.624C59.5315 30.624 58.9929 30.8373 58.5982 31.264C58.2035 31.68 58.0062 32.2827 58.0062 33.072V38H56.1982V33.072C56.1982 32.2827 56.0009 31.68 55.6062 31.264C55.2115 30.8373 54.6729 30.624 53.9902 30.624C53.3075 30.624 52.7635 30.8373 52.3582 31.264C51.9635 31.68 51.7662 32.2827 51.7662 33.072V38H49.9422V29.184H51.7662V30.576C52.0542 30.0747 52.4382 29.696 52.9182 29.44C53.4089 29.1733 53.9635 29.04 54.5822 29.04C55.2649 29.04 55.8729 29.2 56.4062 29.52C56.9395 29.84 57.3449 30.304 57.6222 30.912C57.9315 30.3253 58.3582 29.8667 58.9022 29.536C59.4569 29.2053 60.0809 29.04 60.7742 29.04ZM70.1192 29.04C70.8125 29.04 71.4205 29.2 71.9432 29.52C72.4765 29.8293 72.8872 30.24 73.1752 30.752V29.184H75.0152V38H73.1752V36.352C72.8765 36.896 72.4659 37.3333 71.9432 37.664C71.4205 37.984 70.8125 38.144 70.1192 38.144C69.3512 38.144 68.6472 37.952 68.0072 37.568C67.3779 37.1733 66.8765 36.6293 66.5032 35.936C66.1405 35.232 65.9592 34.4373 65.9592 33.552C65.9592 32.6667 66.1405 31.8827 66.5032 31.2C66.8765 30.5173 67.3779 29.9893 68.0072 29.616C68.6472 29.232 69.3512 29.04 70.1192 29.04ZM70.5032 30.624C70.0339 30.624 69.5965 30.7413 69.1912 30.976C68.7859 31.2 68.4552 31.536 68.1992 31.984C67.9539 32.4213 67.8312 32.944 67.8312 33.552C67.8312 34.16 67.9539 34.6933 68.1992 35.152C68.4552 35.6107 68.7859 35.9627 69.1912 36.208C69.6072 36.4427 70.0445 36.56 70.5032 36.56C70.9725 36.56 71.4099 36.4427 71.8152 36.208C72.2205 35.9733 72.5459 35.632 72.7912 35.184C73.0472 34.7253 73.1752 34.192 73.1752 33.584C73.1752 32.976 73.0472 32.448 72.7912 32C72.5459 31.552 72.2205 31.2107 71.8152 30.976C71.4099 30.7413 70.9725 30.624 70.5032 30.624ZM77.1709 26.848C77.1709 26.5173 77.2829 26.24 77.5069 26.016C77.7309 25.792 78.0083 25.68 78.3389 25.68C78.6589 25.68 78.9309 25.792 79.1549 26.016C79.3789 26.24 79.4909 26.5173 79.4909 26.848C79.4909 27.1787 79.3789 27.456 79.1549 27.68C78.9309 27.904 78.6589 28.016 78.3389 28.016C78.0083 28.016 77.7309 27.904 77.5069 27.68C77.2829 27.456 77.1709 27.1787 77.1709 26.848ZM79.2349 29.184V38H77.4109V29.184H79.2349ZM83.4537 26.16V38H81.6297V26.16H83.4537Z" fill="#626262"/>
<rect x="20" y="93" width="357" height="64" rx="10" fill="#F1F4FF"/>
<path d="M43.1021 126.488V131H41.2781V119.88H45.1181C45.9715 119.88 46.6915 120.029 47.2781 120.328C47.8755 120.616 48.3181 121.011 48.6061 121.512C48.9048 122.013 49.0541 122.573 49.0541 123.192C49.0541 123.757 48.9208 124.291 48.6541 124.792C48.3875 125.293 47.9608 125.704 47.3741 126.024C46.7875 126.333 46.0355 126.488 45.1181 126.488H43.1021ZM45.1181 125.064C45.8115 125.064 46.3288 124.899 46.6701 124.568C47.0115 124.237 47.1821 123.779 47.1821 123.192C47.1821 122.595 47.0115 122.131 46.6701 121.8C46.3288 121.469 45.8115 121.304 45.1181 121.304H43.1021V125.064H45.1181ZM54.3458 122.04C55.0391 122.04 55.6471 122.2 56.1698 122.52C56.7031 122.829 57.1138 123.24 57.4018 123.752V122.184H59.2418V131H57.4018V129.352C57.1031 129.896 56.6924 130.333 56.1698 130.664C55.6471 130.984 55.0391 131.144 54.3458 131.144C53.5778 131.144 52.8738 130.952 52.2338 130.568C51.6044 130.173 51.1031 129.629 50.7298 128.936C50.3671 128.232 50.1858 127.437 50.1858 126.552C50.1858 125.667 50.3671 124.883 50.7298 124.2C51.1031 123.517 51.6044 122.989 52.2338 122.616C52.8738 122.232 53.5778 122.04 54.3458 122.04ZM54.7298 123.624C54.2604 123.624 53.8231 123.741 53.4178 123.976C53.0124 124.2 52.6818 124.536 52.4258 124.984C52.1804 125.421 52.0578 125.944 52.0578 126.552C52.0578 127.16 52.1804 127.693 52.4258 128.152C52.6818 128.611 53.0124 128.963 53.4178 129.208C53.8338 129.443 54.2711 129.56 54.7298 129.56C55.1991 129.56 55.6364 129.443 56.0418 129.208C56.4471 128.973 56.7724 128.632 57.0178 128.184C57.2738 127.725 57.4018 127.192 57.4018 126.584C57.4018 125.976 57.2738 125.448 57.0178 125C56.7724 124.552 56.4471 124.211 56.0418 123.976C55.6364 123.741 55.1991 123.624 54.7298 123.624ZM64.7255 122.04C65.7068 122.04 66.4962 122.296 67.0935 122.808C67.7015 123.309 68.0268 123.997 68.0695 124.872H66.1975C66.1655 124.435 66.0108 124.093 65.7335 123.848C65.4668 123.603 65.0882 123.48 64.5975 123.48C64.1068 123.48 63.7228 123.592 63.4455 123.816C63.1682 124.029 63.0295 124.307 63.0295 124.648C63.0295 124.925 63.1202 125.149 63.3015 125.32C63.4828 125.491 63.7122 125.624 63.9895 125.72C64.2775 125.805 64.6615 125.901 65.1415 126.008C65.7922 126.157 66.3148 126.307 66.7095 126.456C67.1148 126.605 67.4615 126.851 67.7495 127.192C68.0375 127.523 68.1815 127.976 68.1815 128.552C68.1815 129.053 68.0322 129.501 67.7335 129.896C67.4455 130.291 67.0402 130.6 66.5175 130.824C65.9948 131.037 65.4028 131.144 64.7415 131.144C63.7175 131.144 62.8908 130.899 62.2615 130.408C61.6322 129.917 61.2855 129.219 61.2215 128.312H63.1095C63.1415 128.749 63.3015 129.091 63.5895 129.336C63.8775 129.581 64.2615 129.704 64.7415 129.704C65.2535 129.704 65.6535 129.597 65.9415 129.384C66.2402 129.16 66.3895 128.872 66.3895 128.52C66.3895 128.232 66.2935 128.003 66.1015 127.832C65.9202 127.661 65.6855 127.533 65.3975 127.448C65.1095 127.352 64.7202 127.251 64.2295 127.144C63.5895 126.995 63.0722 126.851 62.6775 126.712C62.2828 126.563 61.9415 126.328 61.6535 126.008C61.3762 125.688 61.2375 125.256 61.2375 124.712C61.2375 124.221 61.3762 123.773 61.6535 123.368C61.9308 122.963 62.3308 122.643 62.8535 122.408C63.3868 122.163 64.0108 122.04 64.7255 122.04ZM73.2724 122.04C74.2537 122.04 75.043 122.296 75.6404 122.808C76.2484 123.309 76.5737 123.997 76.6164 124.872H74.7444C74.7124 124.435 74.5577 124.093 74.2804 123.848C74.0137 123.603 73.635 123.48 73.1444 123.48C72.6537 123.48 72.2697 123.592 71.9924 123.816C71.715 124.029 71.5764 124.307 71.5764 124.648C71.5764 124.925 71.667 125.149 71.8484 125.32C72.0297 125.491 72.259 125.624 72.5364 125.72C72.8244 125.805 73.2084 125.901 73.6884 126.008C74.339 126.157 74.8617 126.307 75.2564 126.456C75.6617 126.605 76.0084 126.851 76.2964 127.192C76.5844 127.523 76.7284 127.976 76.7284 128.552C76.7284 129.053 76.579 129.501 76.2804 129.896C75.9924 130.291 75.587 130.6 75.0644 130.824C74.5417 131.037 73.9497 131.144 73.2884 131.144C72.2644 131.144 71.4377 130.899 70.8084 130.408C70.179 129.917 69.8324 129.219 69.7684 128.312H71.6564C71.6884 128.749 71.8484 129.091 72.1364 129.336C72.4244 129.581 72.8084 129.704 73.2884 129.704C73.8004 129.704 74.2004 129.597 74.4884 129.384C74.787 129.16 74.9364 128.872 74.9364 128.52C74.9364 128.232 74.8404 128.003 74.6484 127.832C74.467 127.661 74.2324 127.533 73.9444 127.448C73.6564 127.352 73.267 127.251 72.7764 127.144C72.1364 126.995 71.619 126.851 71.2244 126.712C70.8297 126.563 70.4884 126.328 70.2004 126.008C69.923 125.688 69.7844 125.256 69.7844 124.712C69.7844 124.221 69.923 123.773 70.2004 123.368C70.4777 122.963 70.8777 122.643 71.4004 122.408C71.9337 122.163 72.5577 122.04 73.2724 122.04ZM90.5713 122.184L87.8353 131H85.9153L84.1393 124.488L82.3633 131H80.4433L77.6913 122.184H79.5473L81.3873 129.272L83.2593 122.184H85.1633L86.9553 129.24L88.7793 122.184H90.5713ZM95.8384 122.04C96.681 122.04 97.4437 122.227 98.1264 122.6C98.809 122.973 99.3477 123.507 99.7424 124.2C100.137 124.893 100.334 125.688 100.334 126.584C100.334 127.48 100.132 128.275 99.7264 128.968C99.321 129.661 98.7664 130.2 98.0624 130.584C97.369 130.957 96.601 131.144 95.7584 131.144C94.9264 131.144 94.1744 130.957 93.5024 130.584C92.8304 130.2 92.3024 129.667 91.9184 128.984C91.5344 128.291 91.3424 127.491 91.3424 126.584C91.3424 125.688 91.5397 124.893 91.9344 124.2C92.329 123.507 92.8677 122.973 93.5504 122.6C94.233 122.227 94.9957 122.04 95.8384 122.04ZM95.8064 123.576C95.337 123.576 94.905 123.693 94.5104 123.928C94.1157 124.152 93.7957 124.493 93.5504 124.952C93.3157 125.4 93.1984 125.944 93.1984 126.584C93.1984 127.224 93.3104 127.773 93.5344 128.232C93.769 128.691 94.0784 129.037 94.4624 129.272C94.857 129.496 95.289 129.608 95.7584 129.608C96.2277 129.608 96.665 129.491 97.0704 129.256C97.4864 129.021 97.8224 128.68 98.0784 128.232C98.3344 127.773 98.4624 127.224 98.4624 126.584C98.4624 125.944 98.3397 125.4 98.0944 124.952C97.849 124.493 97.5237 124.152 97.1184 123.928C96.713 123.693 96.2757 123.576 95.8064 123.576ZM103.962 123.72C104.228 123.187 104.58 122.776 105.018 122.488C105.466 122.189 105.994 122.04 106.602 122.04V123.928H106.138C105.423 123.928 104.879 124.109 104.506 124.472C104.143 124.835 103.962 125.464 103.962 126.36V131H102.138V122.184H103.962V123.72ZM111.83 122.04C112.523 122.04 113.131 122.2 113.654 122.52C114.187 122.829 114.598 123.24 114.886 123.752V119.16H116.726V131H114.886V129.352C114.587 129.896 114.177 130.333 113.654 130.664C113.131 130.984 112.523 131.144 111.83 131.144C111.062 131.144 110.358 130.952 109.718 130.568C109.089 130.173 108.587 129.629 108.214 128.936C107.851 128.232 107.67 127.437 107.67 126.552C107.67 125.667 107.851 124.883 108.214 124.2C108.587 123.517 109.089 122.989 109.718 122.616C110.358 122.232 111.062 122.04 111.83 122.04ZM112.214 123.624C111.745 123.624 111.307 123.741 110.902 123.976C110.497 124.2 110.166 124.536 109.91 124.984C109.665 125.421 109.542 125.944 109.542 126.552C109.542 127.16 109.665 127.693 109.91 128.152C110.166 128.611 110.497 128.963 110.902 129.208C111.318 129.443 111.755 129.56 112.214 129.56C112.683 129.56 113.121 129.443 113.526 129.208C113.931 128.973 114.257 128.632 114.502 128.184C114.758 127.725 114.886 127.192 114.886 126.584C114.886 125.976 114.758 125.448 114.502 125C114.257 124.552 113.931 124.211 113.526 123.976C113.121 123.741 112.683 123.624 112.214 123.624Z" fill="#626262"/>
<path d="M217.138 192.228V193.74H213.064V196.302H216.172V197.814H213.064V202H211.09V192.228H217.138ZM222.164 194.132C222.901 194.132 223.573 194.295 224.18 194.622C224.786 194.949 225.267 195.415 225.622 196.022C225.976 196.619 226.154 197.315 226.154 198.108C226.154 198.901 225.976 199.601 225.622 200.208C225.267 200.815 224.782 201.286 224.166 201.622C223.559 201.949 222.882 202.112 222.136 202.112C221.398 202.112 220.726 201.949 220.12 201.622C219.513 201.286 219.032 200.815 218.678 200.208C218.332 199.601 218.16 198.901 218.16 198.108C218.16 197.315 218.337 196.619 218.692 196.022C219.046 195.415 219.527 194.949 220.134 194.622C220.74 194.295 221.417 194.132 222.164 194.132ZM222.15 195.798C221.59 195.798 221.118 195.999 220.736 196.4C220.353 196.801 220.162 197.375 220.162 198.122C220.162 198.626 220.25 199.055 220.428 199.41C220.614 199.755 220.857 200.017 221.156 200.194C221.454 200.362 221.781 200.446 222.136 200.446C222.481 200.446 222.808 200.357 223.116 200.18C223.424 200.003 223.671 199.741 223.858 199.396C224.054 199.041 224.152 198.617 224.152 198.122C224.152 197.618 224.058 197.193 223.872 196.848C223.685 196.493 223.438 196.232 223.13 196.064C222.831 195.887 222.504 195.798 222.15 195.798ZM229.689 195.616C229.932 195.149 230.244 194.785 230.627 194.524C231.019 194.263 231.462 194.132 231.957 194.132V196.148H231.467C230.879 196.148 230.436 196.297 230.137 196.596C229.838 196.885 229.689 197.389 229.689 198.108V202H227.715V194.244H229.689V195.616ZM236.414 194.132C236.964 194.132 237.454 194.249 237.884 194.482C238.313 194.715 238.658 195.037 238.92 195.448V194.244H240.88V202.056C240.88 202.775 240.735 203.419 240.446 203.988C240.166 204.557 239.736 205.005 239.158 205.332C238.588 205.668 237.884 205.836 237.044 205.836C235.933 205.836 235.028 205.589 234.328 205.094C233.637 204.609 233.245 203.913 233.152 203.008H235.084C235.205 203.353 235.438 203.624 235.784 203.82C236.129 204.025 236.549 204.128 237.044 204.128C237.594 204.128 238.042 203.955 238.388 203.61C238.742 203.265 238.92 202.747 238.92 202.056V200.698C238.649 201.137 238.299 201.482 237.87 201.734C237.45 201.986 236.964 202.112 236.414 202.112C235.751 202.112 235.144 201.944 234.594 201.608C234.052 201.263 233.618 200.787 233.292 200.18C232.974 199.573 232.816 198.883 232.816 198.108C232.816 197.333 232.974 196.647 233.292 196.05C233.618 195.443 234.052 194.972 234.594 194.636C235.144 194.3 235.751 194.132 236.414 194.132ZM236.862 195.84C236.516 195.84 236.185 195.929 235.868 196.106C235.56 196.283 235.308 196.545 235.112 196.89C234.916 197.226 234.818 197.632 234.818 198.108C234.818 198.584 234.916 198.999 235.112 199.354C235.308 199.699 235.56 199.961 235.868 200.138C236.185 200.315 236.516 200.404 236.862 200.404C237.216 200.404 237.548 200.315 237.856 200.138C238.173 199.961 238.43 199.699 238.626 199.354C238.822 199.009 238.92 198.598 238.92 198.122C238.92 197.646 238.822 197.235 238.626 196.89C238.43 196.545 238.173 196.283 237.856 196.106C237.548 195.929 237.216 195.84 236.862 195.84ZM246.445 194.132C247.182 194.132 247.854 194.295 248.461 194.622C249.068 194.949 249.548 195.415 249.903 196.022C250.258 196.619 250.435 197.315 250.435 198.108C250.435 198.901 250.258 199.601 249.903 200.208C249.548 200.815 249.063 201.286 248.447 201.622C247.84 201.949 247.164 202.112 246.417 202.112C245.68 202.112 245.008 201.949 244.401 201.622C243.794 201.286 243.314 200.815 242.959 200.208C242.614 199.601 242.441 198.901 242.441 198.108C242.441 197.315 242.618 196.619 242.973 196.022C243.328 195.415 243.808 194.949 244.415 194.622C245.022 194.295 245.698 194.132 246.445 194.132ZM246.431 195.798C245.871 195.798 245.4 195.999 245.017 196.4C244.634 196.801 244.443 197.375 244.443 198.122C244.443 198.626 244.532 199.055 244.709 199.41C244.896 199.755 245.138 200.017 245.437 200.194C245.736 200.362 246.062 200.446 246.417 200.446C246.762 200.446 247.089 200.357 247.397 200.18C247.705 200.003 247.952 199.741 248.139 199.396C248.335 199.041 248.433 198.617 248.433 198.122C248.433 197.618 248.34 197.193 248.153 196.848C247.966 196.493 247.719 196.232 247.411 196.064C247.112 195.887 246.786 195.798 246.431 195.798ZM255.944 200.348V202H254.698C253.905 202 253.294 201.818 252.864 201.454C252.435 201.09 252.22 200.488 252.22 199.648V195.854H251.394V194.244H252.22V192.326H254.194V194.244H255.93V195.854H254.194V199.648C254.194 199.9 254.255 200.082 254.376 200.194C254.498 200.297 254.708 200.348 255.006 200.348H255.944ZM262.936 194.244L264.91 199.76L266.996 194.244H269.054L264.21 205.668H262.152L263.762 201.86L260.724 194.244H262.936ZM273.679 194.132C274.417 194.132 275.089 194.295 275.695 194.622C276.302 194.949 276.783 195.415 277.137 196.022C277.492 196.619 277.669 197.315 277.669 198.108C277.669 198.901 277.492 199.601 277.137 200.208C276.783 200.815 276.297 201.286 275.681 201.622C275.075 201.949 274.398 202.112 273.651 202.112C272.914 202.112 272.242 201.949 271.635 201.622C271.029 201.286 270.548 200.815 270.193 200.208C269.848 199.601 269.675 198.901 269.675 198.108C269.675 197.315 269.853 196.619 270.207 196.022C270.562 195.415 271.043 194.949 271.649 194.622C272.256 194.295 272.933 194.132 273.679 194.132ZM273.665 195.798C273.105 195.798 272.634 195.999 272.251 196.4C271.869 196.801 271.677 197.375 271.677 198.122C271.677 198.626 271.766 199.055 271.943 199.41C272.13 199.755 272.373 200.017 272.671 200.194C272.97 200.362 273.297 200.446 273.651 200.446C273.997 200.446 274.323 200.357 274.631 200.18C274.939 200.003 275.187 199.741 275.373 199.396C275.569 199.041 275.667 198.617 275.667 198.122C275.667 197.618 275.574 197.193 275.387 196.848C275.201 196.493 274.953 196.232 274.645 196.064C274.347 195.887 274.02 195.798 273.665 195.798ZM286.553 194.244V202H284.579V200.824C284.336 201.235 284.005 201.552 283.585 201.776C283.174 201.991 282.698 202.098 282.157 202.098C281.587 202.098 281.074 201.972 280.617 201.72C280.169 201.459 279.814 201.081 279.553 200.586C279.291 200.082 279.161 199.485 279.161 198.794V194.244H281.121V198.514C281.121 199.121 281.275 199.587 281.583 199.914C281.891 200.241 282.311 200.404 282.843 200.404C283.375 200.404 283.795 200.241 284.103 199.914C284.42 199.587 284.579 199.121 284.579 198.514V194.244H286.553ZM290.625 195.616C290.867 195.149 291.18 194.785 291.563 194.524C291.955 194.263 292.398 194.132 292.893 194.132V196.148H292.403C291.815 196.148 291.371 196.297 291.073 196.596C290.774 196.885 290.625 197.389 290.625 198.108V202H288.651V194.244H290.625V195.616ZM302.96 194.132C303.623 194.132 304.23 194.3 304.78 194.636C305.331 194.972 305.765 195.443 306.082 196.05C306.4 196.647 306.558 197.333 306.558 198.108C306.558 198.883 306.4 199.578 306.082 200.194C305.765 200.801 305.331 201.272 304.78 201.608C304.23 201.944 303.623 202.112 302.96 202.112C302.4 202.112 301.91 201.986 301.49 201.734C301.08 201.482 300.739 201.137 300.468 200.698V205.696H298.494V194.244H300.468V195.448C300.72 195.037 301.056 194.715 301.476 194.482C301.906 194.249 302.4 194.132 302.96 194.132ZM302.512 195.84C302.158 195.84 301.822 195.929 301.504 196.106C301.196 196.283 300.944 196.545 300.748 196.89C300.562 197.235 300.468 197.646 300.468 198.122C300.468 198.598 300.562 199.009 300.748 199.354C300.944 199.699 301.196 199.961 301.504 200.138C301.822 200.315 302.158 200.404 302.512 200.404C302.867 200.404 303.198 200.315 303.506 200.138C303.824 199.961 304.076 199.699 304.262 199.354C304.458 198.999 304.556 198.584 304.556 198.108C304.556 197.632 304.458 197.221 304.262 196.876C304.076 196.531 303.824 196.274 303.506 196.106C303.198 195.929 302.867 195.84 302.512 195.84ZM311.158 194.132C311.708 194.132 312.198 194.249 312.628 194.482C313.057 194.715 313.402 195.037 313.664 195.448V194.244H315.624V202H313.664V200.698C313.393 201.137 313.043 201.482 312.614 201.734C312.194 201.986 311.708 202.112 311.158 202.112C310.495 202.112 309.888 201.944 309.338 201.608C308.796 201.263 308.362 200.787 308.036 200.18C307.718 199.573 307.56 198.883 307.56 198.108C307.56 197.333 307.718 196.647 308.036 196.05C308.362 195.443 308.796 194.972 309.338 194.636C309.888 194.3 310.495 194.132 311.158 194.132ZM311.606 195.84C311.26 195.84 310.929 195.929 310.612 196.106C310.304 196.283 310.052 196.545 309.856 196.89C309.66 197.226 309.562 197.632 309.562 198.108C309.562 198.584 309.66 198.999 309.856 199.354C310.052 199.699 310.304 199.961 310.612 200.138C310.929 200.315 311.26 200.404 311.606 200.404C311.96 200.404 312.292 200.315 312.6 200.138C312.917 199.961 313.174 199.699 313.37 199.354C313.566 199.009 313.664 198.598 313.664 198.122C313.664 197.646 313.566 197.235 313.37 196.89C313.174 196.545 312.917 196.283 312.6 196.106C312.292 195.929 311.96 195.84 311.606 195.84ZM320.489 194.132C321.376 194.132 322.104 194.361 322.673 194.818C323.242 195.266 323.546 195.877 323.583 196.652H321.567C321.511 195.999 321.11 195.672 320.363 195.672C319.99 195.672 319.7 195.747 319.495 195.896C319.29 196.045 319.187 196.241 319.187 196.484C319.187 196.689 319.262 196.853 319.411 196.974C319.56 197.095 319.742 197.193 319.957 197.268C320.181 197.333 320.498 197.413 320.909 197.506C321.478 197.627 321.945 197.758 322.309 197.898C322.682 198.029 323 198.243 323.261 198.542C323.522 198.831 323.653 199.233 323.653 199.746C323.653 200.213 323.518 200.623 323.247 200.978C322.976 201.333 322.603 201.613 322.127 201.818C321.651 202.014 321.114 202.112 320.517 202.112C319.584 202.112 318.823 201.897 318.235 201.468C317.647 201.029 317.325 200.404 317.269 199.592H319.285C319.322 199.909 319.448 200.152 319.663 200.32C319.878 200.488 320.167 200.572 320.531 200.572C320.895 200.572 321.189 200.493 321.413 200.334C321.637 200.166 321.749 199.956 321.749 199.704C321.749 199.499 321.674 199.335 321.525 199.214C321.376 199.083 321.189 198.985 320.965 198.92C320.741 198.845 320.419 198.761 319.999 198.668C319.43 198.547 318.963 198.421 318.599 198.29C318.244 198.159 317.936 197.954 317.675 197.674C317.414 197.385 317.283 196.997 317.283 196.512C317.283 196.083 317.409 195.686 317.661 195.322C317.913 194.958 318.282 194.669 318.767 194.454C319.252 194.239 319.826 194.132 320.489 194.132ZM328.104 194.132C328.991 194.132 329.719 194.361 330.288 194.818C330.858 195.266 331.161 195.877 331.198 196.652H329.182C329.126 195.999 328.725 195.672 327.978 195.672C327.605 195.672 327.316 195.747 327.11 195.896C326.905 196.045 326.802 196.241 326.802 196.484C326.802 196.689 326.877 196.853 327.026 196.974C327.176 197.095 327.358 197.193 327.572 197.268C327.796 197.333 328.114 197.413 328.524 197.506C329.094 197.627 329.56 197.758 329.924 197.898C330.298 198.029 330.615 198.243 330.876 198.542C331.138 198.831 331.268 199.233 331.268 199.746C331.268 200.213 331.133 200.623 330.862 200.978C330.592 201.333 330.218 201.613 329.742 201.818C329.266 202.014 328.73 202.112 328.132 202.112C327.199 202.112 326.438 201.897 325.85 201.468C325.262 201.029 324.94 200.404 324.884 199.592H326.9C326.938 199.909 327.064 200.152 327.278 200.32C327.493 200.488 327.782 200.572 328.146 200.572C328.51 200.572 328.804 200.493 329.028 200.334C329.252 200.166 329.364 199.956 329.364 199.704C329.364 199.499 329.29 199.335 329.14 199.214C328.991 199.083 328.804 198.985 328.58 198.92C328.356 198.845 328.034 198.761 327.614 198.668C327.045 198.547 326.578 198.421 326.214 198.29C325.86 198.159 325.552 197.954 325.29 197.674C325.029 197.385 324.898 196.997 324.898 196.512C324.898 196.083 325.024 195.686 325.276 195.322C325.528 194.958 325.897 194.669 326.382 194.454C326.868 194.239 327.442 194.132 328.104 194.132ZM343.629 194.244L341.249 202H339.149L337.819 196.792L336.475 202H334.375L331.995 194.244H333.983L335.411 200.138L336.839 194.244H338.911L340.311 200.124L341.739 194.244H343.629ZM348.232 194.132C348.969 194.132 349.641 194.295 350.248 194.622C350.855 194.949 351.335 195.415 351.69 196.022C352.045 196.619 352.222 197.315 352.222 198.108C352.222 198.901 352.045 199.601 351.69 200.208C351.335 200.815 350.85 201.286 350.234 201.622C349.627 201.949 348.951 202.112 348.204 202.112C347.467 202.112 346.795 201.949 346.188 201.622C345.581 201.286 345.101 200.815 344.746 200.208C344.401 199.601 344.228 198.901 344.228 198.108C344.228 197.315 344.405 196.619 344.76 196.022C345.115 195.415 345.595 194.949 346.202 194.622C346.809 194.295 347.485 194.132 348.232 194.132ZM348.218 195.798C347.658 195.798 347.187 195.999 346.804 196.4C346.421 196.801 346.23 197.375 346.23 198.122C346.23 198.626 346.319 199.055 346.496 199.41C346.683 199.755 346.925 200.017 347.224 200.194C347.523 200.362 347.849 200.446 348.204 200.446C348.549 200.446 348.876 200.357 349.184 200.18C349.492 200.003 349.739 199.741 349.926 199.396C350.122 199.041 350.22 198.617 350.22 198.122C350.22 197.618 350.127 197.193 349.94 196.848C349.753 196.493 349.506 196.232 349.198 196.064C348.899 195.887 348.573 195.798 348.218 195.798ZM355.757 195.616C356 195.149 356.313 194.785 356.695 194.524C357.087 194.263 357.531 194.132 358.025 194.132V196.148H357.535C356.947 196.148 356.504 196.297 356.205 196.596C355.907 196.885 355.757 197.389 355.757 198.108V202H353.783V194.244H355.757V195.616ZM362.482 194.132C363.033 194.132 363.523 194.249 363.952 194.482C364.381 194.715 364.727 195.037 364.988 195.448V191.64H366.948V202H364.988V200.698C364.717 201.137 364.367 201.482 363.938 201.734C363.518 201.986 363.033 202.112 362.482 202.112C361.819 202.112 361.213 201.944 360.662 201.608C360.121 201.263 359.687 200.787 359.36 200.18C359.043 199.573 358.884 198.883 358.884 198.108C358.884 197.333 359.043 196.647 359.36 196.05C359.687 195.443 360.121 194.972 360.662 194.636C361.213 194.3 361.819 194.132 362.482 194.132ZM362.93 195.84C362.585 195.84 362.253 195.929 361.936 196.106C361.628 196.283 361.376 196.545 361.18 196.89C360.984 197.226 360.886 197.632 360.886 198.108C360.886 198.584 360.984 198.999 361.18 199.354C361.376 199.699 361.628 199.961 361.936 200.138C362.253 200.315 362.585 200.404 362.93 200.404C363.285 200.404 363.616 200.315 363.924 200.138C364.241 199.961 364.498 199.699 364.694 199.354C364.89 199.009 364.988 198.598 364.988 198.122C364.988 197.646 364.89 197.235 364.694 196.89C364.498 196.545 364.241 196.283 363.924 196.106C363.616 195.929 363.285 195.84 362.93 195.84ZM372.485 191.444C373.12 191.444 373.68 191.565 374.165 191.808C374.66 192.041 375.043 192.382 375.313 192.83C375.593 193.278 375.733 193.81 375.733 194.426C375.733 195.415 375.463 196.125 374.921 196.554C374.38 196.983 373.577 197.207 372.513 197.226V198.752H370.665V195.924H371.463C372.266 195.924 372.859 195.821 373.241 195.616C373.633 195.411 373.829 195.009 373.829 194.412C373.829 194.001 373.708 193.675 373.465 193.432C373.232 193.189 372.91 193.068 372.499 193.068C372.079 193.068 371.748 193.189 371.505 193.432C371.272 193.665 371.155 193.987 371.155 194.398H369.293C369.284 193.829 369.405 193.32 369.657 192.872C369.909 192.424 370.278 192.074 370.763 191.822C371.249 191.57 371.823 191.444 372.485 191.444ZM371.631 199.802C371.949 199.802 372.215 199.909 372.429 200.124C372.653 200.339 372.765 200.605 372.765 200.922C372.765 201.239 372.653 201.505 372.429 201.72C372.215 201.935 371.949 202.042 371.631 202.042C371.323 202.042 371.057 201.935 370.833 201.72C370.619 201.505 370.511 201.239 370.511 200.922C370.511 200.605 370.619 200.339 370.833 200.124C371.057 199.909 371.323 199.802 371.631 199.802Z" fill="#1F41BB"/>
<g filter="url(#filter0_d_615_78)">
<rect x="20" y="238" width="357" height="60" rx="10" fill="#1F41BB" shape-rendering="crispEdges"/>
<path d="M174.399 270.94C174.399 271.687 174.192 272.38 173.779 273.02C173.379 273.66 172.799 274.173 172.039 274.56C171.292 274.947 170.419 275.14 169.419 275.14C167.886 275.14 166.652 274.787 165.719 274.08C164.786 273.36 164.319 272.353 164.319 271.06H167.319C167.372 271.66 167.572 272.12 167.919 272.44C168.279 272.747 168.779 272.9 169.419 272.9C170.059 272.9 170.566 272.733 170.939 272.4C171.312 272.067 171.499 271.633 171.499 271.1C171.499 270.673 171.366 270.327 171.099 270.06C170.846 269.793 170.526 269.587 170.139 269.44C169.766 269.293 169.232 269.127 168.539 268.94C167.646 268.713 166.919 268.48 166.359 268.24C165.799 268 165.319 267.627 164.919 267.12C164.519 266.6 164.319 265.9 164.319 265.02C164.319 264.18 164.526 263.447 164.939 262.82C165.366 262.18 165.952 261.693 166.699 261.36C167.446 261.013 168.292 260.84 169.239 260.84C170.692 260.84 171.859 261.173 172.739 261.84C173.619 262.493 174.099 263.493 174.179 264.84H171.099C171.046 264.307 170.846 263.887 170.499 263.58C170.152 263.26 169.706 263.1 169.159 263.1C168.586 263.1 168.119 263.247 167.759 263.54C167.412 263.82 167.239 264.253 167.239 264.84C167.239 265.28 167.366 265.64 167.619 265.92C167.886 266.187 168.212 266.393 168.599 266.54C168.986 266.687 169.519 266.847 170.199 267.02C171.092 267.247 171.819 267.48 172.379 267.72C172.939 267.96 173.412 268.34 173.799 268.86C174.199 269.367 174.399 270.06 174.399 270.94ZM176.8 261.1C176.8 260.62 176.966 260.213 177.3 259.88C177.633 259.547 178.033 259.38 178.5 259.38C178.98 259.38 179.386 259.547 179.72 259.88C180.053 260.213 180.22 260.62 180.22 261.1C180.22 261.58 180.053 261.987 179.72 262.32C179.386 262.653 178.98 262.82 178.5 262.82C178.033 262.82 177.633 262.653 177.3 262.32C176.966 261.987 176.8 261.58 176.8 261.1ZM179.92 263.92V275H177.1V263.92H179.92ZM187.28 263.76C188.067 263.76 188.767 263.927 189.38 264.26C189.993 264.593 190.487 265.053 190.86 265.64V263.92H193.66V275.08C193.66 276.107 193.453 277.027 193.04 277.84C192.64 278.653 192.027 279.293 191.2 279.76C190.387 280.24 189.38 280.48 188.18 280.48C186.593 280.48 185.3 280.127 184.3 279.42C183.313 278.727 182.753 277.733 182.62 276.44H185.38C185.553 276.933 185.887 277.32 186.38 277.6C186.873 277.893 187.473 278.04 188.18 278.04C188.967 278.04 189.607 277.793 190.1 277.3C190.607 276.807 190.86 276.067 190.86 275.08V273.14C190.473 273.767 189.973 274.26 189.36 274.62C188.76 274.98 188.067 275.16 187.28 275.16C186.333 275.16 185.467 274.92 184.68 274.44C183.907 273.947 183.287 273.267 182.82 272.4C182.367 271.533 182.14 270.547 182.14 269.44C182.14 268.333 182.367 267.353 182.82 266.5C183.287 265.633 183.907 264.96 184.68 264.48C185.467 264 186.333 263.76 187.28 263.76ZM187.92 266.2C187.427 266.2 186.953 266.327 186.5 266.58C186.06 266.833 185.7 267.207 185.42 267.7C185.14 268.18 185 268.76 185 269.44C185 270.12 185.14 270.713 185.42 271.22C185.7 271.713 186.06 272.087 186.5 272.34C186.953 272.593 187.427 272.72 187.92 272.72C188.427 272.72 188.9 272.593 189.34 272.34C189.793 272.087 190.16 271.713 190.44 271.22C190.72 270.727 190.86 270.14 190.86 269.46C190.86 268.78 190.72 268.193 190.44 267.7C190.16 267.207 189.793 266.833 189.34 266.58C188.9 266.327 188.427 266.2 187.92 266.2ZM202.91 263.76C203.737 263.76 204.47 263.947 205.11 264.32C205.764 264.68 206.277 265.22 206.65 265.94C207.024 266.647 207.21 267.493 207.21 268.48V275H204.41V268.88C204.41 268.013 204.19 267.353 203.75 266.9C203.31 266.433 202.71 266.2 201.95 266.2C201.19 266.2 200.584 266.433 200.13 266.9C199.69 267.353 199.47 268.013 199.47 268.88V275H196.65V263.92H199.47V265.58C199.817 264.993 200.284 264.547 200.87 264.24C201.47 263.92 202.15 263.76 202.91 263.76ZM215.804 261.1C215.804 260.62 215.97 260.213 216.304 259.88C216.637 259.547 217.037 259.38 217.504 259.38C217.984 259.38 218.39 259.547 218.724 259.88C219.057 260.213 219.224 260.62 219.224 261.1C219.224 261.58 219.057 261.987 218.724 262.32C218.39 262.653 217.984 262.82 217.504 262.82C217.037 262.82 216.637 262.653 216.304 262.32C215.97 261.987 215.804 261.58 215.804 261.1ZM218.924 263.92V275H216.104V263.92H218.924ZM228.184 263.76C229.01 263.76 229.744 263.947 230.384 264.32C231.037 264.68 231.55 265.22 231.924 265.94C232.297 266.647 232.484 267.493 232.484 268.48V275H229.684V268.88C229.684 268.013 229.464 267.353 229.024 266.9C228.584 266.433 227.984 266.2 227.224 266.2C226.464 266.2 225.857 266.433 225.404 266.9C224.964 267.353 224.744 268.013 224.744 268.88V275H221.924V263.92H224.744V265.58C225.09 264.993 225.557 264.547 226.144 264.24C226.744 263.92 227.424 263.76 228.184 263.76Z" fill="white"/>
</g>
<rect x="20" y="328" width="357" height="41" rx="10" fill="white"/>
<path d="M130.461 343.088C131.525 343.088 132.468 343.359 133.289 343.9C134.12 344.441 134.712 345.202 135.067 346.182H132.701C132.262 345.323 131.516 344.894 130.461 344.894C129.873 344.894 129.35 345.025 128.893 345.286C128.445 345.547 128.095 345.921 127.843 346.406C127.591 346.891 127.465 347.451 127.465 348.086C127.465 348.721 127.591 349.281 127.843 349.766C128.095 350.251 128.445 350.629 128.893 350.9C129.35 351.161 129.873 351.292 130.461 351.292C131.506 351.292 132.253 350.863 132.701 350.004H135.067C134.712 350.984 134.12 351.745 133.289 352.286C132.468 352.818 131.525 353.084 130.461 353.084C129.546 353.084 128.706 352.874 127.941 352.454C127.176 352.025 126.569 351.432 126.121 350.676C125.682 349.911 125.463 349.047 125.463 348.086C125.463 347.134 125.682 346.28 126.121 345.524C126.569 344.759 127.176 344.161 127.941 343.732C128.706 343.303 129.546 343.088 130.461 343.088ZM138.743 346.616C138.985 346.149 139.298 345.785 139.681 345.524C140.073 345.263 140.516 345.132 141.011 345.132V347.148H140.521C139.933 347.148 139.489 347.297 139.191 347.596C138.892 347.885 138.743 348.389 138.743 349.108V353H136.769V345.244H138.743V346.616ZM149.597 349.01C149.597 349.281 149.579 349.533 149.541 349.766H143.885C143.932 350.27 144.119 350.676 144.445 350.984C144.772 351.292 145.187 351.446 145.691 351.446C146.083 351.446 146.396 351.371 146.629 351.222C146.863 351.073 147.054 350.867 147.203 350.606H149.331C149.107 351.343 148.673 351.945 148.029 352.412C147.385 352.879 146.606 353.112 145.691 353.112C144.954 353.112 144.296 352.949 143.717 352.622C143.139 352.286 142.686 351.819 142.359 351.222C142.033 350.615 141.869 349.911 141.869 349.108C141.869 348.305 142.033 347.605 142.359 347.008C142.686 346.411 143.139 345.949 143.717 345.622C144.305 345.295 144.973 345.132 145.719 345.132C146.466 345.132 147.129 345.291 147.707 345.608C148.295 345.925 148.757 346.378 149.093 346.966C149.429 347.545 149.597 348.226 149.597 349.01ZM147.553 348.492C147.525 347.979 147.334 347.568 146.979 347.26C146.634 346.952 146.205 346.798 145.691 346.798C145.215 346.798 144.809 346.952 144.473 347.26C144.147 347.568 143.951 347.979 143.885 348.492H147.553ZM154.204 345.132C154.754 345.132 155.244 345.249 155.674 345.482C156.103 345.715 156.448 346.037 156.71 346.448V345.244H158.67V353H156.71V351.698C156.439 352.137 156.089 352.482 155.66 352.734C155.24 352.986 154.754 353.112 154.204 353.112C153.541 353.112 152.934 352.944 152.384 352.608C151.842 352.263 151.408 351.787 151.082 351.18C150.764 350.573 150.606 349.883 150.606 349.108C150.606 348.333 150.764 347.647 151.082 347.05C151.408 346.443 151.842 345.972 152.384 345.636C152.934 345.3 153.541 345.132 154.204 345.132ZM154.652 346.84C154.306 346.84 153.975 346.929 153.658 347.106C153.35 347.283 153.098 347.545 152.902 347.89C152.706 348.226 152.608 348.632 152.608 349.108C152.608 349.584 152.706 349.999 152.902 350.354C153.098 350.699 153.35 350.961 153.658 351.138C153.975 351.315 154.306 351.404 154.652 351.404C155.006 351.404 155.338 351.315 155.646 351.138C155.963 350.961 156.22 350.699 156.416 350.354C156.612 350.009 156.71 349.598 156.71 349.122C156.71 348.646 156.612 348.235 156.416 347.89C156.22 347.545 155.963 347.283 155.646 347.106C155.338 346.929 155.006 346.84 154.652 346.84ZM164.711 351.348V353H163.465C162.672 353 162.06 352.818 161.631 352.454C161.202 352.09 160.987 351.488 160.987 350.648V346.854H160.161V345.244H160.987V343.326H162.961V345.244H164.697V346.854H162.961V350.648C162.961 350.9 163.022 351.082 163.143 351.194C163.264 351.297 163.474 351.348 163.773 351.348H164.711ZM173.427 349.01C173.427 349.281 173.409 349.533 173.371 349.766H167.715C167.762 350.27 167.949 350.676 168.275 350.984C168.602 351.292 169.017 351.446 169.521 351.446C169.913 351.446 170.226 351.371 170.459 351.222C170.693 351.073 170.884 350.867 171.033 350.606H173.161C172.937 351.343 172.503 351.945 171.859 352.412C171.215 352.879 170.436 353.112 169.521 353.112C168.784 353.112 168.126 352.949 167.547 352.622C166.969 352.286 166.516 351.819 166.189 351.222C165.863 350.615 165.699 349.911 165.699 349.108C165.699 348.305 165.863 347.605 166.189 347.008C166.516 346.411 166.969 345.949 167.547 345.622C168.135 345.295 168.803 345.132 169.549 345.132C170.296 345.132 170.959 345.291 171.537 345.608C172.125 345.925 172.587 346.378 172.923 346.966C173.259 347.545 173.427 348.226 173.427 349.01ZM171.383 348.492C171.355 347.979 171.164 347.568 170.809 347.26C170.464 346.952 170.035 346.798 169.521 346.798C169.045 346.798 168.639 346.952 168.303 347.26C167.977 347.568 167.781 347.979 167.715 348.492H171.383ZM183.561 345.132C184.14 345.132 184.653 345.263 185.101 345.524C185.558 345.776 185.918 346.154 186.179 346.658C186.44 347.153 186.571 347.745 186.571 348.436V353H184.611V348.716C184.611 348.109 184.457 347.647 184.149 347.33C183.841 347.003 183.421 346.84 182.889 346.84C182.357 346.84 181.932 347.003 181.615 347.33C181.307 347.647 181.153 348.109 181.153 348.716V353H179.179V345.244H181.153V346.406C181.396 345.995 181.722 345.683 182.133 345.468C182.553 345.244 183.029 345.132 183.561 345.132ZM195.781 349.01C195.781 349.281 195.762 349.533 195.725 349.766H190.069C190.115 350.27 190.302 350.676 190.629 350.984C190.955 351.292 191.371 351.446 191.875 351.446C192.267 351.446 192.579 351.371 192.813 351.222C193.046 351.073 193.237 350.867 193.387 350.606H195.515C195.291 351.343 194.857 351.945 194.213 352.412C193.569 352.879 192.789 353.112 191.875 353.112C191.137 353.112 190.479 352.949 189.901 352.622C189.322 352.286 188.869 351.819 188.543 351.222C188.216 350.615 188.053 349.911 188.053 349.108C188.053 348.305 188.216 347.605 188.543 347.008C188.869 346.411 189.322 345.949 189.901 345.622C190.489 345.295 191.156 345.132 191.903 345.132C192.649 345.132 193.312 345.291 193.891 345.608C194.479 345.925 194.941 346.378 195.277 346.966C195.613 347.545 195.781 348.226 195.781 349.01ZM193.737 348.492C193.709 347.979 193.517 347.568 193.163 347.26C192.817 346.952 192.388 346.798 191.875 346.798C191.399 346.798 190.993 346.952 190.657 347.26C190.33 347.568 190.134 347.979 190.069 348.492H193.737ZM208.017 345.244L205.637 353H203.537L202.207 347.792L200.863 353H198.763L196.383 345.244H198.371L199.799 351.138L201.227 345.244H203.299L204.699 351.124L206.127 345.244H208.017ZM216.397 345.132C216.948 345.132 217.438 345.249 217.867 345.482C218.296 345.715 218.642 346.037 218.903 346.448V345.244H220.863V353H218.903V351.698C218.632 352.137 218.282 352.482 217.853 352.734C217.433 352.986 216.948 353.112 216.397 353.112C215.734 353.112 215.128 352.944 214.577 352.608C214.036 352.263 213.602 351.787 213.275 351.18C212.958 350.573 212.799 349.883 212.799 349.108C212.799 348.333 212.958 347.647 213.275 347.05C213.602 346.443 214.036 345.972 214.577 345.636C215.128 345.3 215.734 345.132 216.397 345.132ZM216.845 346.84C216.5 346.84 216.168 346.929 215.851 347.106C215.543 347.283 215.291 347.545 215.095 347.89C214.899 348.226 214.801 348.632 214.801 349.108C214.801 349.584 214.899 349.999 215.095 350.354C215.291 350.699 215.543 350.961 215.851 351.138C216.168 351.315 216.5 351.404 216.845 351.404C217.2 351.404 217.531 351.315 217.839 351.138C218.156 350.961 218.413 350.699 218.609 350.354C218.805 350.009 218.903 349.598 218.903 349.122C218.903 348.646 218.805 348.235 218.609 347.89C218.413 347.545 218.156 347.283 217.839 347.106C217.531 346.929 217.2 346.84 216.845 346.84ZM226.232 345.132C227.175 345.132 227.964 345.361 228.598 345.818C229.233 346.275 229.658 346.924 229.872 347.764H227.744C227.623 347.465 227.436 347.232 227.184 347.064C226.932 346.887 226.615 346.798 226.232 346.798C225.663 346.798 225.215 347.008 224.888 347.428C224.571 347.839 224.412 348.403 224.412 349.122C224.412 349.841 224.571 350.41 224.888 350.83C225.215 351.241 225.663 351.446 226.232 351.446C226.624 351.446 226.942 351.367 227.184 351.208C227.427 351.049 227.614 350.802 227.744 350.466H229.872C229.648 351.278 229.214 351.922 228.57 352.398C227.936 352.874 227.156 353.112 226.232 353.112C225.495 353.112 224.837 352.949 224.258 352.622C223.68 352.295 223.227 351.833 222.9 351.236C222.574 350.629 222.41 349.925 222.41 349.122C222.41 348.319 222.574 347.619 222.9 347.022C223.227 346.415 223.68 345.949 224.258 345.622C224.837 345.295 225.495 345.132 226.232 345.132ZM234.627 345.132C235.569 345.132 236.358 345.361 236.993 345.818C237.627 346.275 238.052 346.924 238.267 347.764H236.139C236.017 347.465 235.831 347.232 235.579 347.064C235.327 346.887 235.009 346.798 234.627 346.798C234.057 346.798 233.609 347.008 233.283 347.428C232.965 347.839 232.807 348.403 232.807 349.122C232.807 349.841 232.965 350.41 233.283 350.83C233.609 351.241 234.057 351.446 234.627 351.446C235.019 351.446 235.336 351.367 235.579 351.208C235.821 351.049 236.008 350.802 236.139 350.466H238.267C238.043 351.278 237.609 351.922 236.965 352.398C236.33 352.874 235.551 353.112 234.627 353.112C233.889 353.112 233.231 352.949 232.653 352.622C232.074 352.295 231.621 351.833 231.295 351.236C230.968 350.629 230.805 349.925 230.805 349.122C230.805 348.319 230.968 347.619 231.295 347.022C231.621 346.415 232.074 345.949 232.653 345.622C233.231 345.295 233.889 345.132 234.627 345.132ZM243.217 345.132C243.955 345.132 244.627 345.295 245.233 345.622C245.84 345.949 246.321 346.415 246.675 347.022C247.03 347.619 247.207 348.315 247.207 349.108C247.207 349.901 247.03 350.601 246.675 351.208C246.321 351.815 245.835 352.286 245.219 352.622C244.613 352.949 243.936 353.112 243.189 353.112C242.452 353.112 241.78 352.949 241.173 352.622C240.567 352.286 240.086 351.815 239.731 351.208C239.386 350.601 239.213 349.901 239.213 349.108C239.213 348.315 239.391 347.619 239.745 347.022C240.1 346.415 240.581 345.949 241.187 345.622C241.794 345.295 242.471 345.132 243.217 345.132ZM243.203 346.798C242.643 346.798 242.172 346.999 241.789 347.4C241.407 347.801 241.215 348.375 241.215 349.122C241.215 349.626 241.304 350.055 241.481 350.41C241.668 350.755 241.911 351.017 242.209 351.194C242.508 351.362 242.835 351.446 243.189 351.446C243.535 351.446 243.861 351.357 244.169 351.18C244.477 351.003 244.725 350.741 244.911 350.396C245.107 350.041 245.205 349.617 245.205 349.122C245.205 348.618 245.112 348.193 244.925 347.848C244.739 347.493 244.491 347.232 244.183 347.064C243.885 346.887 243.558 346.798 243.203 346.798ZM256.091 345.244V353H254.117V351.824C253.874 352.235 253.543 352.552 253.123 352.776C252.712 352.991 252.236 353.098 251.695 353.098C251.125 353.098 250.612 352.972 250.155 352.72C249.707 352.459 249.352 352.081 249.091 351.586C248.829 351.082 248.699 350.485 248.699 349.794V345.244H250.659V349.514C250.659 350.121 250.813 350.587 251.121 350.914C251.429 351.241 251.849 351.404 252.381 351.404C252.913 351.404 253.333 351.241 253.641 350.914C253.958 350.587 254.117 350.121 254.117 349.514V345.244H256.091ZM262.571 345.132C263.149 345.132 263.663 345.263 264.111 345.524C264.568 345.776 264.927 346.154 265.189 346.658C265.45 347.153 265.581 347.745 265.581 348.436V353H263.621V348.716C263.621 348.109 263.467 347.647 263.159 347.33C262.851 347.003 262.431 346.84 261.899 346.84C261.367 346.84 260.942 347.003 260.625 347.33C260.317 347.647 260.163 348.109 260.163 348.716V353H258.189V345.244H260.163V346.406C260.405 345.995 260.732 345.683 261.143 345.468C261.563 345.244 262.039 345.132 262.571 345.132ZM271.557 351.348V353H270.311C269.517 353 268.906 352.818 268.477 352.454C268.047 352.09 267.833 351.488 267.833 350.648V346.854H267.007V345.244H267.833V343.326H269.807V345.244H271.543V346.854H269.807V350.648C269.807 350.9 269.867 351.082 269.989 351.194C270.11 351.297 270.32 351.348 270.619 351.348H271.557Z" fill="#494949"/>
<defs>
<filter id="filter0_d_615_78" x="0" y="228" width="397" height="100" filterUnits="userSpaceOnUse" color-interpolation-filters="sRGB">
<feFlood flood-opacity="0" result="BackgroundImageFix"/>
<feColorMatrix in="SourceAlpha" type="matrix" values="0 0 0 0 0 0 0 0 0 0 0 0 0 0 0 0 0 0 127 0" result="hardAlpha"/>
<feOffset dy="10"/>
<feGaussianBlur stdDeviation="10"/>
<feComposite in2="hardAlpha" operator="out"/>
<feColorMatrix type="matrix" values="0 0 0 0 0.795833 0 0 0 0 0.84075 0 0 0 0 1 0 0 0 1 0"/>
<feBlend mode="normal" in2="BackgroundImageFix" result="effect1_dropShadow_615_78"/>
<feBlend mode="normal" in="SourceGraphic" in2="effect1_dropShadow_615_78" result="shape"/>
</filter>
</defs>
</svg>
