<svg width="228" height="131" viewBox="0 0 228 131" fill="none" xmlns="http://www.w3.org/2000/svg">
<path d="M37.7941 29.1H44.1841V33H32.6641V11.94H37.7941V29.1ZM54.5795 16.08C56.1795 16.08 57.6395 16.43 58.9595 17.13C60.2995 17.81 61.3595 18.8 62.1395 20.1C62.9195 21.38 63.3095 22.88 63.3095 24.6C63.3095 26.32 62.9195 27.83 62.1395 29.13C61.3795 30.43 60.3395 31.44 59.0195 32.16C57.6995 32.86 56.2295 33.21 54.6095 33.21C52.9895 33.21 51.5095 32.86 50.1695 32.16C48.8295 31.44 47.7695 30.43 46.9895 29.13C46.2095 27.83 45.8195 26.32 45.8195 24.6C45.8195 22.88 46.2095 21.38 46.9895 20.1C47.7695 18.8 48.8195 17.81 50.1395 17.13C51.4795 16.43 52.9595 16.08 54.5795 16.08ZM54.5795 20.46C53.5995 20.46 52.7595 20.82 52.0595 21.54C51.3795 22.24 51.0395 23.27 51.0395 24.63C51.0395 25.99 51.3895 27.03 52.0895 27.75C52.8095 28.47 53.6495 28.83 54.6095 28.83C55.5695 28.83 56.3895 28.47 57.0695 27.75C57.7495 27.03 58.0895 25.99 58.0895 24.63C58.0895 23.27 57.7395 22.24 57.0395 21.54C56.3395 20.82 55.5195 20.46 54.5795 20.46ZM73.0091 16.08C75.1491 16.08 76.7891 16.87 77.9291 18.45V16.26H83.0591V32.91C83.0591 35.37 82.3691 37.38 80.9891 38.94C79.6291 40.5 77.5191 41.28 74.6591 41.28C72.0991 41.28 70.0691 40.76 68.5691 39.72C67.0691 38.68 66.2191 37.09 66.0191 34.95H71.0591C71.5391 36.21 72.7391 36.84 74.6591 36.84C75.5991 36.84 76.3791 36.52 76.9991 35.88C77.6191 35.26 77.9291 34.27 77.9291 32.91V30.57C76.6891 32.33 75.0491 33.21 73.0091 33.21C71.6291 33.21 70.3491 32.85 69.1691 32.13C68.0091 31.41 67.0891 30.4 66.4091 29.1C65.7291 27.8 65.3891 26.32 65.3891 24.66C65.3891 23 65.7291 21.52 66.4091 20.22C67.0891 18.92 68.0091 17.91 69.1691 17.19C70.3491 16.45 71.6291 16.08 73.0091 16.08ZM74.2691 20.52C73.6691 20.52 73.0791 20.68 72.4991 21C71.9391 21.3 71.4791 21.76 71.1191 22.38C70.7791 23 70.6091 23.76 70.6091 24.66C70.6091 25.56 70.7791 26.32 71.1191 26.94C71.4791 27.54 71.9391 28 72.4991 28.32C73.0591 28.62 73.6491 28.77 74.2691 28.77C74.8691 28.77 75.4491 28.62 76.0091 28.32C76.5891 28 77.0491 27.53 77.3891 26.91C77.7491 26.29 77.9291 25.53 77.9291 24.63C77.9291 23.73 77.7491 22.98 77.3891 22.38C77.0491 21.76 76.5991 21.3 76.0391 21C75.4791 20.68 74.8891 20.52 74.2691 20.52ZM87.1164 12.24C87.1164 11.38 87.4064 10.66 87.9864 10.08C88.5664 9.5 89.2764 9.21 90.1164 9.21C90.9564 9.21 91.6664 9.5 92.2464 10.08C92.8264 10.66 93.1164 11.38 93.1164 12.24C93.1164 13.08 92.8264 13.79 92.2464 14.37C91.6664 14.95 90.9564 15.24 90.1164 15.24C89.2764 15.24 88.5664 14.95 87.9864 14.37C87.4064 13.79 87.1164 13.08 87.1164 12.24ZM92.6964 16.26V33H87.5664V16.26H92.6964ZM107.405 16.08C108.665 16.08 109.775 16.37 110.735 16.95C111.715 17.51 112.475 18.33 113.015 19.41C113.575 20.49 113.855 21.76 113.855 23.22V33H108.755V23.91C108.755 22.83 108.465 22 107.885 21.42C107.325 20.82 106.545 20.52 105.545 20.52C104.545 20.52 103.755 20.82 103.175 21.42C102.615 22 102.335 22.83 102.335 23.91V33H97.2051V16.26H102.335V18.72C102.835 17.9 103.515 17.26 104.375 16.8C105.255 16.32 106.265 16.08 107.405 16.08ZM137.405 16.08C138.665 16.08 139.775 16.37 140.735 16.95C141.715 17.51 142.475 18.33 143.015 19.41C143.575 20.49 143.855 21.76 143.855 23.22V33H138.755V23.91C138.755 22.83 138.465 22 137.885 21.42C137.325 20.82 136.545 20.52 135.545 20.52C134.545 20.52 133.755 20.82 133.175 21.42C132.615 22 132.335 22.83 132.335 23.91V33H127.205V10.8H132.335V18.72C132.835 17.9 133.515 17.26 134.375 16.8C135.255 16.32 136.265 16.08 137.405 16.08ZM163.871 24.69C163.871 25.27 163.831 25.81 163.751 26.31H152.231C152.331 27.05 152.661 27.66 153.221 28.14C153.781 28.6 154.481 28.83 155.321 28.83C155.961 28.83 156.441 28.74 156.761 28.56C157.081 28.36 157.421 28.04 157.781 27.6H163.331C162.851 29.28 161.891 30.64 160.451 31.68C159.011 32.7 157.301 33.21 155.321 33.21C153.721 33.21 152.281 32.86 151.001 32.16C149.741 31.46 148.751 30.46 148.031 29.16C147.331 27.84 146.981 26.32 146.981 24.6C146.981 22.88 147.331 21.38 148.031 20.1C148.751 18.8 149.741 17.81 151.001 17.13C152.261 16.43 153.691 16.08 155.291 16.08C156.911 16.08 158.371 16.42 159.671 17.1C160.971 17.76 161.991 18.74 162.731 20.04C163.491 21.34 163.871 22.89 163.871 24.69ZM158.531 23.1C158.451 22.32 158.111 21.69 157.511 21.21C156.911 20.71 156.171 20.46 155.291 20.46C154.531 20.46 153.871 20.71 153.311 21.21C152.751 21.69 152.401 22.32 152.261 23.1H158.531ZM172.296 19.38C172.856 18.36 173.546 17.56 174.366 16.98C175.186 16.38 176.096 16.08 177.096 16.08V21.3H175.836C174.656 21.3 173.766 21.58 173.166 22.14C172.586 22.7 172.296 23.68 172.296 25.08V33H167.166V16.26H172.296V19.38ZM195.541 24.69C195.541 25.27 195.501 25.81 195.421 26.31H183.901C184.001 27.05 184.331 27.66 184.891 28.14C185.451 28.6 186.151 28.83 186.991 28.83C187.631 28.83 188.111 28.74 188.431 28.56C188.751 28.36 189.091 28.04 189.451 27.6H195.001C194.521 29.28 193.561 30.64 192.121 31.68C190.681 32.7 188.971 33.21 186.991 33.21C185.391 33.21 183.951 32.86 182.671 32.16C181.411 31.46 180.421 30.46 179.701 29.16C179.001 27.84 178.651 26.32 178.651 24.6C178.651 22.88 179.001 21.38 179.701 20.1C180.421 18.8 181.411 17.81 182.671 17.13C183.931 16.43 185.361 16.08 186.961 16.08C188.581 16.08 190.041 16.42 191.341 17.1C192.641 17.76 193.661 18.74 194.401 20.04C195.161 21.34 195.541 22.89 195.541 24.69ZM190.201 23.1C190.121 22.32 189.781 21.69 189.181 21.21C188.581 20.71 187.841 20.46 186.961 20.46C186.201 20.46 185.541 20.71 184.981 21.21C184.421 21.69 184.071 22.32 183.931 23.1H190.201Z" fill="#1F41BB"/>
<path d="M20.2923 79.04L16.2523 93H13.0523L10.3523 83.26L7.57234 93H4.37234L0.412344 79.04H3.41234L6.09234 89.82L8.91234 79.04H12.0923L14.7523 89.72L17.2723 79.04H20.2923ZM32.303 87.3C32.303 87.6867 32.2763 88.0467 32.223 88.38H24.143C24.2096 89.1 24.4763 89.68 24.943 90.12C25.4096 90.56 26.003 90.78 26.723 90.78C27.283 90.78 27.7296 90.6733 28.063 90.46C28.3963 90.2467 28.6696 89.9533 28.883 89.58H31.923C31.603 90.6333 30.983 91.4933 30.063 92.16C29.143 92.8267 28.0296 93.16 26.723 93.16C25.6696 93.16 24.7296 92.9267 23.903 92.46C23.0763 91.98 22.4296 91.3133 21.963 90.46C21.4963 89.5933 21.263 88.5867 21.263 87.44C21.263 86.2933 21.4963 85.2933 21.963 84.44C22.4296 83.5867 23.0763 82.9267 23.903 82.46C24.743 81.9933 25.6963 81.76 26.763 81.76C27.8296 81.76 28.7763 81.9867 29.603 82.44C30.443 82.8933 31.103 83.54 31.583 84.38C32.063 85.2067 32.303 86.18 32.303 87.3ZM29.383 86.56C29.343 85.8267 29.0696 85.24 28.563 84.8C28.0696 84.36 27.4563 84.14 26.723 84.14C26.043 84.14 25.463 84.36 24.983 84.8C24.5163 85.24 24.2363 85.8267 24.143 86.56H29.383ZM37.3434 78.2V93H34.5234V78.2H37.3434ZM45.0238 81.76C46.3704 81.76 47.4971 82.0867 48.4038 82.74C49.3104 83.3933 49.9171 84.32 50.2238 85.52H47.1838C47.0104 85.0933 46.7438 84.76 46.3838 84.52C46.0238 84.2667 45.5704 84.14 45.0238 84.14C44.2104 84.14 43.5704 84.44 43.1038 85.04C42.6504 85.6267 42.4238 86.4333 42.4238 87.46C42.4238 88.4867 42.6504 89.3 43.1038 89.9C43.5704 90.4867 44.2104 90.78 45.0238 90.78C45.5838 90.78 46.0371 90.6667 46.3838 90.44C46.7304 90.2133 46.9971 89.86 47.1838 89.38H50.2238C49.9038 90.54 49.2838 91.46 48.3638 92.14C47.4571 92.82 46.3438 93.16 45.0238 93.16C43.9704 93.16 43.0304 92.9267 42.2038 92.46C41.3771 91.9933 40.7304 91.3333 40.2638 90.48C39.7971 89.6133 39.5638 88.6067 39.5638 87.46C39.5638 86.3133 39.7971 85.3133 40.2638 84.46C40.7304 83.5933 41.3771 82.9267 42.2038 82.46C43.0304 81.9933 43.9704 81.76 45.0238 81.76ZM57.2959 81.76C58.3493 81.76 59.3093 81.9933 60.1759 82.46C61.0426 82.9267 61.7293 83.5933 62.2359 84.46C62.7426 85.3133 62.9959 86.3067 62.9959 87.44C62.9959 88.5733 62.7426 89.5733 62.2359 90.44C61.7293 91.3067 61.0359 91.98 60.1559 92.46C59.2893 92.9267 58.3226 93.16 57.2559 93.16C56.2026 93.16 55.2426 92.9267 54.3759 92.46C53.5093 91.98 52.8226 91.3067 52.3159 90.44C51.8226 89.5733 51.5759 88.5733 51.5759 87.44C51.5759 86.3067 51.8293 85.3133 52.3359 84.46C52.8426 83.5933 53.5293 82.9267 54.3959 82.46C55.2626 81.9933 56.2293 81.76 57.2959 81.76ZM57.2759 84.14C56.4759 84.14 55.8026 84.4267 55.2559 85C54.7093 85.5733 54.4359 86.3933 54.4359 87.46C54.4359 88.18 54.5626 88.7933 54.8159 89.3C55.0826 89.7933 55.4293 90.1667 55.8559 90.42C56.2826 90.66 56.7493 90.78 57.2559 90.78C57.7493 90.78 58.2159 90.6533 58.6559 90.4C59.0959 90.1467 59.4493 89.7733 59.7159 89.28C59.9959 88.7733 60.1359 88.1667 60.1359 87.46C60.1359 86.74 60.0026 86.1333 59.7359 85.64C59.4693 85.1333 59.1159 84.76 58.6759 84.52C58.2493 84.2667 57.7826 84.14 57.2759 84.14ZM79.1266 81.76C80.4466 81.76 81.5066 82.1733 82.3066 83C83.1199 83.8267 83.5266 84.9867 83.5266 86.48V93H80.7266V86.88C80.7266 86.0133 80.5066 85.3533 80.0666 84.9C79.6266 84.4333 79.0266 84.2 78.2666 84.2C77.5066 84.2 76.8999 84.4333 76.4466 84.9C76.0066 85.3533 75.7866 86.0133 75.7866 86.88V93H72.9866V86.88C72.9866 86.0133 72.7666 85.3533 72.3266 84.9C71.8866 84.4333 71.2866 84.2 70.5266 84.2C69.7666 84.2 69.1599 84.4333 68.7066 84.9C68.2666 85.3533 68.0466 86.0133 68.0466 86.88V93H65.2266V81.92H68.0466V83.58C68.3932 82.9933 68.8599 82.5467 69.4466 82.24C70.0466 81.92 70.7266 81.76 71.4866 81.76C72.3266 81.76 73.0732 81.9533 73.7266 82.34C74.3932 82.7267 74.9066 83.28 75.2666 84C75.6532 83.3067 76.1799 82.76 76.8466 82.36C77.5266 81.96 78.2866 81.76 79.1266 81.76ZM96.678 87.3C96.678 87.6867 96.6513 88.0467 96.598 88.38H88.518C88.5846 89.1 88.8513 89.68 89.318 90.12C89.7846 90.56 90.378 90.78 91.098 90.78C91.658 90.78 92.1046 90.6733 92.438 90.46C92.7713 90.2467 93.0446 89.9533 93.258 89.58H96.298C95.978 90.6333 95.358 91.4933 94.438 92.16C93.518 92.8267 92.4046 93.16 91.098 93.16C90.0446 93.16 89.1046 92.9267 88.278 92.46C87.4513 91.98 86.8046 91.3133 86.338 90.46C85.8713 89.5933 85.638 88.5867 85.638 87.44C85.638 86.2933 85.8713 85.2933 86.338 84.44C86.8046 83.5867 87.4513 82.9267 88.278 82.46C89.118 81.9933 90.0713 81.76 91.138 81.76C92.2046 81.76 93.1513 81.9867 93.978 82.44C94.818 82.8933 95.478 83.54 95.958 84.38C96.438 85.2067 96.678 86.18 96.678 87.3ZM93.758 86.56C93.718 85.8267 93.4446 85.24 92.938 84.8C92.4446 84.36 91.8313 84.14 91.098 84.14C90.418 84.14 89.838 84.36 89.358 84.8C88.8913 85.24 88.6113 85.8267 88.518 86.56H93.758ZM111.275 81.76C112.221 81.76 113.088 82 113.875 82.48C114.661 82.96 115.281 83.6333 115.735 84.5C116.188 85.3533 116.415 86.3333 116.415 87.44C116.415 88.5467 116.188 89.54 115.735 90.42C115.281 91.2867 114.661 91.96 113.875 92.44C113.088 92.92 112.221 93.16 111.275 93.16C110.475 93.16 109.775 92.98 109.175 92.62C108.588 92.26 108.101 91.7667 107.715 91.14V93H104.895V78.2H107.715V83.64C108.075 83.0533 108.555 82.5933 109.155 82.26C109.768 81.9267 110.475 81.76 111.275 81.76ZM110.635 84.2C110.128 84.2 109.648 84.3267 109.195 84.58C108.755 84.8333 108.395 85.2067 108.115 85.7C107.848 86.1933 107.715 86.78 107.715 87.46C107.715 88.14 107.848 88.7267 108.115 89.22C108.395 89.7133 108.755 90.0867 109.195 90.34C109.648 90.5933 110.128 90.72 110.635 90.72C111.141 90.72 111.615 90.5933 112.055 90.34C112.508 90.0867 112.868 89.7133 113.135 89.22C113.415 88.7133 113.555 88.12 113.555 87.44C113.555 86.76 113.415 86.1733 113.135 85.68C112.868 85.1867 112.508 84.82 112.055 84.58C111.615 84.3267 111.141 84.2 110.635 84.2ZM122.985 81.76C123.772 81.76 124.472 81.9267 125.085 82.26C125.698 82.5933 126.192 83.0533 126.565 83.64V81.92H129.365V93H126.565V91.14C126.178 91.7667 125.678 92.26 125.065 92.62C124.465 92.98 123.772 93.16 122.985 93.16C122.038 93.16 121.172 92.92 120.385 92.44C119.612 91.9467 118.992 91.2667 118.525 90.4C118.072 89.5333 117.845 88.5467 117.845 87.44C117.845 86.3333 118.072 85.3533 118.525 84.5C118.992 83.6333 119.612 82.96 120.385 82.48C121.172 82 122.038 81.76 122.985 81.76ZM123.625 84.2C123.132 84.2 122.658 84.3267 122.205 84.58C121.765 84.8333 121.405 85.2067 121.125 85.7C120.845 86.18 120.705 86.76 120.705 87.44C120.705 88.12 120.845 88.7133 121.125 89.22C121.405 89.7133 121.765 90.0867 122.205 90.34C122.658 90.5933 123.132 90.72 123.625 90.72C124.132 90.72 124.605 90.5933 125.045 90.34C125.498 90.0867 125.865 89.7133 126.145 89.22C126.425 88.7267 126.565 88.14 126.565 87.46C126.565 86.78 126.425 86.1933 126.145 85.7C125.865 85.2067 125.498 84.8333 125.045 84.58C124.605 84.3267 124.132 84.2 123.625 84.2ZM137.035 81.76C138.382 81.76 139.509 82.0867 140.415 82.74C141.322 83.3933 141.929 84.32 142.235 85.52H139.195C139.022 85.0933 138.755 84.76 138.395 84.52C138.035 84.2667 137.582 84.14 137.035 84.14C136.222 84.14 135.582 84.44 135.115 85.04C134.662 85.6267 134.435 86.4333 134.435 87.46C134.435 88.4867 134.662 89.3 135.115 89.9C135.582 90.4867 136.222 90.78 137.035 90.78C137.595 90.78 138.049 90.6667 138.395 90.44C138.742 90.2133 139.009 89.86 139.195 89.38H142.235C141.915 90.54 141.295 91.46 140.375 92.14C139.469 92.82 138.355 93.16 137.035 93.16C135.982 93.16 135.042 92.9267 134.215 92.46C133.389 91.9933 132.742 91.3333 132.275 90.48C131.809 89.6133 131.575 88.6067 131.575 87.46C131.575 86.3133 131.809 85.3133 132.275 84.46C132.742 83.5933 133.389 82.9267 134.215 82.46C135.042 81.9933 135.982 81.76 137.035 81.76ZM149.808 87.52L154.728 93H150.968L147.168 88.38V93H144.348V78.2H147.168V86.66L150.908 81.92H154.728L149.808 87.52ZM164.136 81.92L166.956 89.8L169.936 81.92H172.876L165.956 98.24H163.016L165.316 92.8L160.976 81.92H164.136ZM179.483 81.76C180.537 81.76 181.497 81.9933 182.363 82.46C183.23 82.9267 183.917 83.5933 184.423 84.46C184.93 85.3133 185.183 86.3067 185.183 87.44C185.183 88.5733 184.93 89.5733 184.423 90.44C183.917 91.3067 183.223 91.98 182.343 92.46C181.477 92.9267 180.51 93.16 179.443 93.16C178.39 93.16 177.43 92.9267 176.563 92.46C175.697 91.98 175.01 91.3067 174.503 90.44C174.01 89.5733 173.763 88.5733 173.763 87.44C173.763 86.3067 174.017 85.3133 174.523 84.46C175.03 83.5933 175.717 82.9267 176.583 82.46C177.45 81.9933 178.417 81.76 179.483 81.76ZM179.463 84.14C178.663 84.14 177.99 84.4267 177.443 85C176.897 85.5733 176.623 86.3933 176.623 87.46C176.623 88.18 176.75 88.7933 177.003 89.3C177.27 89.7933 177.617 90.1667 178.043 90.42C178.47 90.66 178.937 90.78 179.443 90.78C179.937 90.78 180.403 90.6533 180.843 90.4C181.283 90.1467 181.637 89.7733 181.903 89.28C182.183 88.7733 182.323 88.1667 182.323 87.46C182.323 86.74 182.19 86.1333 181.923 85.64C181.657 85.1333 181.303 84.76 180.863 84.52C180.437 84.2667 179.97 84.14 179.463 84.14ZM197.874 81.92V93H195.054V91.32C194.707 91.9067 194.234 92.36 193.634 92.68C193.047 92.9867 192.367 93.14 191.594 93.14C190.781 93.14 190.047 92.96 189.394 92.6C188.754 92.2267 188.247 91.6867 187.874 90.98C187.501 90.26 187.314 89.4067 187.314 88.42V81.92H190.114V88.02C190.114 88.8867 190.334 89.5533 190.774 90.02C191.214 90.4867 191.814 90.72 192.574 90.72C193.334 90.72 193.934 90.4867 194.374 90.02C194.827 89.5533 195.054 88.8867 195.054 88.02V81.92H197.874ZM202.371 76.64C202.598 77.3733 202.711 78.0933 202.711 78.8C202.711 79.68 202.498 80.36 202.071 80.84C201.658 81.3067 201.038 81.54 200.211 81.54V80.4C200.878 80.4 201.211 79.9933 201.211 79.18V78.8H200.051V76.64H202.371ZM209.395 90.58L212.235 81.92H215.235L211.155 93H207.615L203.535 81.92H206.535L209.395 90.58ZM227.127 87.3C227.127 87.6867 227.101 88.0467 227.047 88.38H218.967C219.034 89.1 219.301 89.68 219.767 90.12C220.234 90.56 220.827 90.78 221.547 90.78C222.107 90.78 222.554 90.6733 222.887 90.46C223.221 90.2467 223.494 89.9533 223.707 89.58H226.747C226.427 90.6333 225.807 91.4933 224.887 92.16C223.967 92.8267 222.854 93.16 221.547 93.16C220.494 93.16 219.554 92.9267 218.727 92.46C217.901 91.98 217.254 91.3133 216.787 90.46C216.321 89.5933 216.087 88.5867 216.087 87.44C216.087 86.2933 216.321 85.2933 216.787 84.44C217.254 83.5867 217.901 82.9267 218.727 82.46C219.567 81.9933 220.521 81.76 221.587 81.76C222.654 81.76 223.601 81.9867 224.427 82.44C225.267 82.8933 225.927 83.54 226.407 84.38C226.887 85.2067 227.127 86.18 227.127 87.3ZM224.207 86.56C224.167 85.8267 223.894 85.24 223.387 84.8C222.894 84.36 222.281 84.14 221.547 84.14C220.867 84.14 220.287 84.36 219.807 84.8C219.341 85.24 219.061 85.8267 218.967 86.56H224.207ZM51.128 111.76C52.0747 111.76 52.9414 112 53.728 112.48C54.5147 112.96 55.1347 113.633 55.588 114.5C56.0414 115.353 56.268 116.333 56.268 117.44C56.268 118.547 56.0414 119.54 55.588 120.42C55.1347 121.287 54.5147 121.96 53.728 122.44C52.9414 122.92 52.0747 123.16 51.128 123.16C50.328 123.16 49.628 122.98 49.028 122.62C48.4414 122.26 47.9547 121.767 47.568 121.14V123H44.748V108.2H47.568V113.64C47.928 113.053 48.408 112.593 49.008 112.26C49.6214 111.927 50.328 111.76 51.128 111.76ZM50.488 114.2C49.9814 114.2 49.5014 114.327 49.048 114.58C48.608 114.833 48.248 115.207 47.968 115.7C47.7014 116.193 47.568 116.78 47.568 117.46C47.568 118.14 47.7014 118.727 47.968 119.22C48.248 119.713 48.608 120.087 49.048 120.34C49.5014 120.593 49.9814 120.72 50.488 120.72C50.9947 120.72 51.468 120.593 51.908 120.34C52.3614 120.087 52.7214 119.713 52.988 119.22C53.268 118.713 53.408 118.12 53.408 117.44C53.408 116.76 53.268 116.173 52.988 115.68C52.7214 115.187 52.3614 114.82 51.908 114.58C51.468 114.327 50.9947 114.2 50.488 114.2ZM68.7385 117.3C68.7385 117.687 68.7118 118.047 68.6585 118.38H60.5785C60.6452 119.1 60.9118 119.68 61.3785 120.12C61.8452 120.56 62.4385 120.78 63.1585 120.78C63.7185 120.78 64.1652 120.673 64.4985 120.46C64.8318 120.247 65.1052 119.953 65.3185 119.58H68.3585C68.0385 120.633 67.4185 121.493 66.4985 122.16C65.5785 122.827 64.4652 123.16 63.1585 123.16C62.1052 123.16 61.1652 122.927 60.3385 122.46C59.5118 121.98 58.8652 121.313 58.3985 120.46C57.9318 119.593 57.6985 118.587 57.6985 117.44C57.6985 116.293 57.9318 115.293 58.3985 114.44C58.8652 113.587 59.5118 112.927 60.3385 112.46C61.1785 111.993 62.1318 111.76 63.1985 111.76C64.2652 111.76 65.2118 111.987 66.0385 112.44C66.8785 112.893 67.5385 113.54 68.0185 114.38C68.4985 115.207 68.7385 116.18 68.7385 117.3ZM65.8185 116.56C65.7785 115.827 65.5052 115.24 64.9985 114.8C64.5052 114.36 63.8918 114.14 63.1585 114.14C62.4785 114.14 61.8985 114.36 61.4185 114.8C60.9518 115.24 60.6718 115.827 60.5785 116.56H65.8185ZM81.219 117.3C81.219 117.687 81.1923 118.047 81.139 118.38H73.059C73.1257 119.1 73.3923 119.68 73.859 120.12C74.3257 120.56 74.919 120.78 75.639 120.78C76.199 120.78 76.6457 120.673 76.979 120.46C77.3123 120.247 77.5857 119.953 77.799 119.58H80.839C80.519 120.633 79.899 121.493 78.979 122.16C78.059 122.827 76.9457 123.16 75.639 123.16C74.5857 123.16 73.6457 122.927 72.819 122.46C71.9923 121.98 71.3457 121.313 70.879 120.46C70.4123 119.593 70.179 118.587 70.179 117.44C70.179 116.293 70.4123 115.293 70.879 114.44C71.3457 113.587 71.9923 112.927 72.819 112.46C73.659 111.993 74.6123 111.76 75.679 111.76C76.7457 111.76 77.6923 111.987 78.519 112.44C79.359 112.893 80.019 113.54 80.499 114.38C80.979 115.207 81.219 116.18 81.219 117.3ZM78.299 116.56C78.259 115.827 77.9857 115.24 77.479 114.8C76.9857 114.36 76.3723 114.14 75.639 114.14C74.959 114.14 74.379 114.36 73.899 114.8C73.4323 115.24 73.1523 115.827 73.059 116.56H78.299ZM89.6995 111.76C90.5261 111.76 91.2595 111.947 91.8995 112.32C92.5528 112.68 93.0661 113.22 93.4395 113.94C93.8128 114.647 93.9995 115.493 93.9995 116.48V123H91.1995V116.88C91.1995 116.013 90.9795 115.353 90.5395 114.9C90.0995 114.433 89.4995 114.2 88.7395 114.2C87.9795 114.2 87.3728 114.433 86.9195 114.9C86.4795 115.353 86.2595 116.013 86.2595 116.88V123H83.4395V111.92H86.2595V113.58C86.6061 112.993 87.0728 112.547 87.6595 112.24C88.2595 111.92 88.9395 111.76 89.6995 111.76ZM116.793 111.76C118.113 111.76 119.173 112.173 119.973 113C120.786 113.827 121.193 114.987 121.193 116.48V123H118.393V116.88C118.393 116.013 118.173 115.353 117.733 114.9C117.293 114.433 116.693 114.2 115.933 114.2C115.173 114.2 114.566 114.433 114.113 114.9C113.673 115.353 113.453 116.013 113.453 116.88V123H110.653V116.88C110.653 116.013 110.433 115.353 109.993 114.9C109.553 114.433 108.953 114.2 108.193 114.2C107.433 114.2 106.826 114.433 106.373 114.9C105.933 115.353 105.713 116.013 105.713 116.88V123H102.893V111.92H105.713V113.58C106.059 112.993 106.526 112.547 107.113 112.24C107.713 111.92 108.393 111.76 109.153 111.76C109.993 111.76 110.739 111.953 111.393 112.34C112.059 112.727 112.573 113.28 112.933 114C113.319 113.307 113.846 112.76 114.513 112.36C115.193 111.96 115.953 111.76 116.793 111.76ZM123.784 109.1C123.784 108.62 123.951 108.213 124.284 107.88C124.617 107.547 125.017 107.38 125.484 107.38C125.964 107.38 126.371 107.547 126.704 107.88C127.037 108.213 127.204 108.62 127.204 109.1C127.204 109.58 127.037 109.987 126.704 110.32C126.371 110.653 125.964 110.82 125.484 110.82C125.017 110.82 124.617 110.653 124.284 110.32C123.951 109.987 123.784 109.58 123.784 109.1ZM126.904 111.92V123H124.084V111.92H126.904ZM133.864 111.76C135.131 111.76 136.171 112.087 136.984 112.74C137.798 113.38 138.231 114.253 138.284 115.36H135.404C135.324 114.427 134.751 113.96 133.684 113.96C133.151 113.96 132.738 114.067 132.444 114.28C132.151 114.493 132.004 114.773 132.004 115.12C132.004 115.413 132.111 115.647 132.324 115.82C132.538 115.993 132.798 116.133 133.104 116.24C133.424 116.333 133.878 116.447 134.464 116.58C135.278 116.753 135.944 116.94 136.464 117.14C136.998 117.327 137.451 117.633 137.824 118.06C138.198 118.473 138.384 119.047 138.384 119.78C138.384 120.447 138.191 121.033 137.804 121.54C137.418 122.047 136.884 122.447 136.204 122.74C135.524 123.02 134.758 123.16 133.904 123.16C132.571 123.16 131.484 122.853 130.644 122.24C129.804 121.613 129.344 120.72 129.264 119.56H132.144C132.198 120.013 132.378 120.36 132.684 120.6C132.991 120.84 133.404 120.96 133.924 120.96C134.444 120.96 134.864 120.847 135.184 120.62C135.504 120.38 135.664 120.08 135.664 119.72C135.664 119.427 135.558 119.193 135.344 119.02C135.131 118.833 134.864 118.693 134.544 118.6C134.224 118.493 133.764 118.373 133.164 118.24C132.351 118.067 131.684 117.887 131.164 117.7C130.658 117.513 130.218 117.22 129.844 116.82C129.471 116.407 129.284 115.853 129.284 115.16C129.284 114.547 129.464 113.98 129.824 113.46C130.184 112.94 130.711 112.527 131.404 112.22C132.098 111.913 132.918 111.76 133.864 111.76ZM144.743 111.76C146.01 111.76 147.05 112.087 147.863 112.74C148.677 113.38 149.11 114.253 149.163 115.36H146.283C146.203 114.427 145.63 113.96 144.563 113.96C144.03 113.96 143.617 114.067 143.323 114.28C143.03 114.493 142.883 114.773 142.883 115.12C142.883 115.413 142.99 115.647 143.203 115.82C143.417 115.993 143.677 116.133 143.983 116.24C144.303 116.333 144.757 116.447 145.343 116.58C146.157 116.753 146.823 116.94 147.343 117.14C147.877 117.327 148.33 117.633 148.703 118.06C149.077 118.473 149.263 119.047 149.263 119.78C149.263 120.447 149.07 121.033 148.683 121.54C148.297 122.047 147.763 122.447 147.083 122.74C146.403 123.02 145.637 123.16 144.783 123.16C143.45 123.16 142.363 122.853 141.523 122.24C140.683 121.613 140.223 120.72 140.143 119.56H143.023C143.077 120.013 143.257 120.36 143.563 120.6C143.87 120.84 144.283 120.96 144.803 120.96C145.323 120.96 145.743 120.847 146.063 120.62C146.383 120.38 146.543 120.08 146.543 119.72C146.543 119.427 146.437 119.193 146.223 119.02C146.01 118.833 145.743 118.693 145.423 118.6C145.103 118.493 144.643 118.373 144.043 118.24C143.23 118.067 142.563 117.887 142.043 117.7C141.537 117.513 141.097 117.22 140.723 116.82C140.35 116.407 140.163 115.853 140.163 115.16C140.163 114.547 140.343 113.98 140.703 113.46C141.063 112.94 141.59 112.527 142.283 112.22C142.977 111.913 143.797 111.76 144.743 111.76ZM161.922 117.3C161.922 117.687 161.895 118.047 161.842 118.38H153.762C153.829 119.1 154.095 119.68 154.562 120.12C155.029 120.56 155.622 120.78 156.342 120.78C156.902 120.78 157.349 120.673 157.682 120.46C158.015 120.247 158.289 119.953 158.502 119.58H161.542C161.222 120.633 160.602 121.493 159.682 122.16C158.762 122.827 157.649 123.16 156.342 123.16C155.289 123.16 154.349 122.927 153.522 122.46C152.695 121.98 152.049 121.313 151.582 120.46C151.115 119.593 150.882 118.587 150.882 117.44C150.882 116.293 151.115 115.293 151.582 114.44C152.049 113.587 152.695 112.927 153.522 112.46C154.362 111.993 155.315 111.76 156.382 111.76C157.449 111.76 158.395 111.987 159.222 112.44C160.062 112.893 160.722 113.54 161.202 114.38C161.682 115.207 161.922 116.18 161.922 117.3ZM159.002 116.56C158.962 115.827 158.689 115.24 158.182 114.8C157.689 114.36 157.075 114.14 156.342 114.14C155.662 114.14 155.082 114.36 154.602 114.8C154.135 115.24 153.855 115.827 153.762 116.56H159.002ZM168.503 111.76C169.289 111.76 169.989 111.927 170.603 112.26C171.216 112.593 171.709 113.053 172.083 113.64V108.2H174.883V123H172.083V121.14C171.696 121.767 171.196 122.26 170.583 122.62C169.983 122.98 169.289 123.16 168.503 123.16C167.556 123.16 166.689 122.92 165.903 122.44C165.129 121.947 164.509 121.267 164.043 120.4C163.589 119.533 163.363 118.547 163.363 117.44C163.363 116.333 163.589 115.353 164.043 114.5C164.509 113.633 165.129 112.96 165.903 112.48C166.689 112 167.556 111.76 168.503 111.76ZM169.143 114.2C168.649 114.2 168.176 114.327 167.723 114.58C167.283 114.833 166.923 115.207 166.643 115.7C166.363 116.18 166.223 116.76 166.223 117.44C166.223 118.12 166.363 118.713 166.643 119.22C166.923 119.713 167.283 120.087 167.723 120.34C168.176 120.593 168.649 120.72 169.143 120.72C169.649 120.72 170.123 120.593 170.563 120.34C171.016 120.087 171.383 119.713 171.663 119.22C171.943 118.727 172.083 118.14 172.083 117.46C172.083 116.78 171.943 116.193 171.663 115.7C171.383 115.207 171.016 114.833 170.563 114.58C170.123 114.327 169.649 114.2 169.143 114.2ZM182.213 107.98L181.893 118.3H179.533L179.213 107.98H182.213ZM179.173 121.4C179.173 120.947 179.326 120.567 179.633 120.26C179.953 119.953 180.333 119.8 180.773 119.8C181.226 119.8 181.606 119.953 181.913 120.26C182.233 120.567 182.393 120.947 182.393 121.4C182.393 121.853 182.233 122.233 181.913 122.54C181.606 122.847 181.226 123 180.773 123C180.333 123 179.953 122.847 179.633 122.54C179.326 122.233 179.173 121.853 179.173 121.4Z" fill="black"/>
</svg>
