<svg width="200" height="85" viewBox="0 0 200 85" fill="none" xmlns="http://www.w3.org/2000/svg">
<path d="M45.5987 5.088C46.5227 5.088 47.3627 5.30267 48.1187 5.732C48.884 6.16133 49.486 6.75867 49.9247 7.524C50.3727 8.28 50.5967 9.134 50.5967 10.086C50.5967 11.0473 50.3727 11.9107 49.9247 12.676C49.486 13.432 48.884 14.0247 48.1187 14.454C47.3533 14.8833 46.5133 15.098 45.5987 15.098C44.684 15.098 43.844 14.8833 43.0787 14.454C42.3133 14.0247 41.7067 13.432 41.2587 12.676C40.82 11.9107 40.6007 11.0473 40.6007 10.086C40.6007 9.134 40.82 8.28 41.2587 7.524C41.7067 6.75867 42.3133 6.16133 43.0787 5.732C43.844 5.30267 44.684 5.088 45.5987 5.088ZM45.5987 6.894C45.0107 6.894 44.488 7.02467 44.0307 7.286C43.5827 7.54733 43.2327 7.92067 42.9807 8.406C42.7287 8.89133 42.6027 9.45133 42.6027 10.086C42.6027 10.7207 42.7287 11.2807 42.9807 11.766C43.2327 12.2513 43.5827 12.6293 44.0307 12.9C44.488 13.1613 45.0107 13.292 45.5987 13.292C46.1867 13.292 46.7047 13.1613 47.1527 12.9C47.6007 12.6293 47.9507 12.256 48.2027 11.78C48.4547 11.2947 48.5807 10.73 48.5807 10.086C48.5807 9.442 48.4547 8.882 48.2027 8.406C47.9507 7.92067 47.6007 7.54733 47.1527 7.286C46.7047 7.02467 46.1867 6.894 45.5987 6.894ZM54.1265 8.616C54.3692 8.14933 54.6819 7.78533 55.0645 7.524C55.4565 7.26267 55.8999 7.132 56.3945 7.132V9.148H55.9045C55.3165 9.148 54.8732 9.29733 54.5745 9.596C54.2759 9.88533 54.1265 10.3893 54.1265 11.108V15H52.1525V7.244H54.1265V8.616ZM65.2723 7.132C66.215 7.132 67.0036 7.36067 67.6383 7.818C68.273 8.27533 68.6976 8.924 68.9123 9.764H66.7843C66.663 9.46533 66.4763 9.232 66.2243 9.064C65.9723 8.88667 65.655 8.798 65.2723 8.798C64.703 8.798 64.255 9.008 63.9283 9.428C63.611 9.83867 63.4523 10.4033 63.4523 11.122C63.4523 11.8407 63.611 12.41 63.9283 12.83C64.255 13.2407 64.703 13.446 65.2723 13.446C65.6643 13.446 65.9816 13.3667 66.2243 13.208C66.467 13.0493 66.6536 12.802 66.7843 12.466H68.9123C68.6883 13.278 68.2543 13.922 67.6103 14.398C66.9756 14.874 66.1963 15.112 65.2723 15.112C64.535 15.112 63.877 14.9487 63.2983 14.622C62.7196 14.2953 62.267 13.8333 61.9403 13.236C61.6136 12.6293 61.4503 11.9247 61.4503 11.122C61.4503 10.3193 61.6136 9.61933 61.9403 9.022C62.267 8.41533 62.7196 7.94867 63.2983 7.622C63.877 7.29533 64.535 7.132 65.2723 7.132ZM73.8628 7.132C74.6002 7.132 75.2722 7.29533 75.8788 7.622C76.4855 7.94867 76.9662 8.41533 77.3208 9.022C77.6755 9.61933 77.8528 10.3147 77.8528 11.108C77.8528 11.9013 77.6755 12.6013 77.3208 13.208C76.9662 13.8147 76.4808 14.286 75.8648 14.622C75.2582 14.9487 74.5815 15.112 73.8348 15.112C73.0975 15.112 72.4255 14.9487 71.8188 14.622C71.2122 14.286 70.7315 13.8147 70.3768 13.208C70.0315 12.6013 69.8588 11.9013 69.8588 11.108C69.8588 10.3147 70.0362 9.61933 70.3908 9.022C70.7455 8.41533 71.2262 7.94867 71.8328 7.622C72.4395 7.29533 73.1162 7.132 73.8628 7.132ZM73.8488 8.798C73.2888 8.798 72.8175 8.99867 72.4348 9.4C72.0522 9.80133 71.8608 10.3753 71.8608 11.122C71.8608 11.626 71.9495 12.0553 72.1268 12.41C72.3135 12.7553 72.5562 13.0167 72.8548 13.194C73.1535 13.362 73.4802 13.446 73.8348 13.446C74.1802 13.446 74.5068 13.3573 74.8148 13.18C75.1228 13.0027 75.3702 12.7413 75.5568 12.396C75.7528 12.0413 75.8508 11.6167 75.8508 11.122C75.8508 10.618 75.7575 10.1933 75.5708 9.848C75.3842 9.49333 75.1368 9.232 74.8288 9.064C74.5302 8.88667 74.2035 8.798 73.8488 8.798ZM83.7963 7.132C84.3749 7.132 84.8883 7.26267 85.3363 7.524C85.7936 7.776 86.1529 8.154 86.4143 8.658C86.6756 9.15267 86.8063 9.74533 86.8063 10.436V15H84.8463V10.716C84.8463 10.1093 84.6923 9.64733 84.3843 9.33C84.0763 9.00333 83.6563 8.84 83.1243 8.84C82.5923 8.84 82.1676 9.00333 81.8503 9.33C81.5423 9.64733 81.3883 10.1093 81.3883 10.716V15H79.4143V7.244H81.3883V8.406C81.6309 7.99533 81.9576 7.68267 82.3683 7.468C82.7883 7.244 83.2643 7.132 83.7963 7.132ZM92.7822 13.348V15H91.5362C90.7428 15 90.1315 14.818 89.7022 14.454C89.2728 14.09 89.0582 13.488 89.0582 12.648V8.854H88.2322V7.244H89.0582V5.326H91.0322V7.244H92.7682V8.854H91.0322V12.648C91.0322 12.9 91.0928 13.082 91.2142 13.194C91.3355 13.2967 91.5455 13.348 91.8442 13.348H92.7822ZM94.1066 5.27C94.1066 4.934 94.2233 4.64933 94.4566 4.416C94.6899 4.18267 94.9699 4.066 95.2966 4.066C95.6326 4.066 95.9173 4.18267 96.1506 4.416C96.3839 4.64933 96.5006 4.934 96.5006 5.27C96.5006 5.606 96.3839 5.89067 96.1506 6.124C95.9173 6.35733 95.6326 6.474 95.2966 6.474C94.9699 6.474 94.6899 6.35733 94.4566 6.124C94.2233 5.89067 94.1066 5.606 94.1066 5.27ZM96.2906 7.244V15H94.3166V7.244H96.2906ZM102.773 7.132C103.351 7.132 103.865 7.26267 104.313 7.524C104.77 7.776 105.129 8.154 105.391 8.658C105.652 9.15267 105.783 9.74533 105.783 10.436V15H103.823V10.716C103.823 10.1093 103.669 9.64733 103.361 9.33C103.053 9.00333 102.633 8.84 102.101 8.84C101.569 8.84 101.144 9.00333 100.827 9.33C100.519 9.64733 100.365 10.1093 100.365 10.716V15H98.3908V7.244H100.365V8.406C100.607 7.99533 100.934 7.68267 101.345 7.468C101.765 7.244 102.241 7.132 102.773 7.132ZM115.133 7.244V15H113.159V13.824C112.916 14.2347 112.585 14.552 112.165 14.776C111.754 14.9907 111.278 15.098 110.737 15.098C110.167 15.098 109.654 14.972 109.197 14.72C108.749 14.4587 108.394 14.0807 108.133 13.586C107.871 13.082 107.741 12.4847 107.741 11.794V7.244H109.701V11.514C109.701 12.1207 109.855 12.5873 110.163 12.914C110.471 13.2407 110.891 13.404 111.423 13.404C111.955 13.404 112.375 13.2407 112.683 12.914C113 12.5873 113.159 12.1207 113.159 11.514V7.244H115.133ZM124.413 11.01C124.413 11.2807 124.394 11.5327 124.357 11.766H118.701C118.747 12.27 118.934 12.676 119.261 12.984C119.587 13.292 120.003 13.446 120.507 13.446C120.899 13.446 121.211 13.3713 121.445 13.222C121.678 13.0727 121.869 12.8673 122.019 12.606H124.147C123.923 13.3433 123.489 13.9453 122.845 14.412C122.201 14.8787 121.421 15.112 120.507 15.112C119.769 15.112 119.111 14.9487 118.533 14.622C117.954 14.286 117.501 13.8193 117.175 13.222C116.848 12.6153 116.685 11.9107 116.685 11.108C116.685 10.3053 116.848 9.60533 117.175 9.008C117.501 8.41067 117.954 7.94867 118.533 7.622C119.121 7.29533 119.788 7.132 120.535 7.132C121.281 7.132 121.944 7.29067 122.523 7.608C123.111 7.92533 123.573 8.378 123.909 8.966C124.245 9.54467 124.413 10.226 124.413 11.01ZM122.369 10.492C122.341 9.97867 122.149 9.568 121.795 9.26C121.449 8.952 121.02 8.798 120.507 8.798C120.031 8.798 119.625 8.952 119.289 9.26C118.962 9.568 118.766 9.97867 118.701 10.492H122.369ZM140.846 7.244L138.466 15H136.366L135.036 9.792L133.692 15H131.592L129.212 7.244H131.2L132.628 13.138L134.056 7.244H136.128L137.528 13.124L138.956 7.244H140.846ZM141.767 5.27C141.767 4.934 141.883 4.64933 142.117 4.416C142.35 4.18267 142.63 4.066 142.957 4.066C143.293 4.066 143.577 4.18267 143.811 4.416C144.044 4.64933 144.161 4.934 144.161 5.27C144.161 5.606 144.044 5.89067 143.811 6.124C143.577 6.35733 143.293 6.474 142.957 6.474C142.63 6.474 142.35 6.35733 142.117 6.124C141.883 5.89067 141.767 5.606 141.767 5.27ZM143.951 7.244V15H141.977V7.244H143.951ZM149.999 13.348V15H148.753C147.96 15 147.348 14.818 146.919 14.454C146.49 14.09 146.275 13.488 146.275 12.648V8.854H145.449V7.244H146.275V5.326H148.249V7.244H149.985V8.854H148.249V12.648C148.249 12.9 148.31 13.082 148.431 13.194C148.552 13.2967 148.762 13.348 149.061 13.348H149.999ZM155.915 7.132C156.494 7.132 157.007 7.26267 157.455 7.524C157.913 7.776 158.272 8.154 158.533 8.658C158.795 9.15267 158.925 9.74533 158.925 10.436V15H156.965V10.716C156.965 10.1093 156.811 9.64733 156.503 9.33C156.195 9.00333 155.775 8.84 155.243 8.84C154.711 8.84 154.287 9.00333 153.969 9.33C153.661 9.64733 153.507 10.1093 153.507 10.716V15H151.533V4.64H153.507V8.406C153.75 7.99533 154.077 7.68267 154.487 7.468C154.907 7.244 155.383 7.132 155.915 7.132Z" fill="#1F41BB"/>
<rect y="41" width="60" height="44" rx="10" fill="#ECECEC"/>
<path d="M30 72.375C28.4581 72.3753 26.94 71.9954 25.58 71.2688C24.2201 70.5421 23.0604 69.4913 22.2036 68.2094C21.3468 66.9275 20.8194 65.4541 20.6682 63.9196C20.517 62.3852 20.7465 60.8371 21.3365 59.4126C21.9265 57.9881 22.8588 56.7311 24.0507 55.7529C25.2426 54.7748 26.6573 54.1057 28.1696 53.805C29.6818 53.5043 31.2449 53.5812 32.7204 54.029C34.1958 54.4767 35.538 55.2814 36.6281 56.3719C36.733 56.4764 36.8162 56.6006 36.873 56.7373C36.9298 56.8741 36.959 57.0207 36.959 57.1688C36.959 57.3168 36.9298 57.4634 36.873 57.6002C36.8162 57.7369 36.733 57.8611 36.6281 57.9656C36.4147 58.1729 36.1288 58.2889 35.8312 58.2889C35.5337 58.2889 35.2478 58.1729 35.0344 57.9656C34.376 57.3004 33.5918 56.773 32.7274 56.414C31.8631 56.0551 30.9359 55.8719 30 55.875C28.6391 55.876 27.3069 56.2666 26.1611 57.0009C25.0152 57.7351 24.1036 58.7821 23.534 60.0181C22.9644 61.2541 22.7608 62.6273 22.9471 63.9754C23.1334 65.3235 23.7019 66.59 24.5853 67.6252C25.4687 68.6604 26.6302 69.4209 27.9322 69.8168C29.2343 70.2127 30.6224 70.2275 31.9326 69.8593C33.2428 69.4911 34.4201 68.7554 35.3253 67.7392C36.2305 66.723 36.8257 65.4688 37.0406 64.125H30C29.7016 64.125 29.4155 64.0065 29.2045 63.7955C28.9935 63.5845 28.875 63.2984 28.875 63C28.875 62.7016 28.9935 62.4155 29.2045 62.2045C29.4155 61.9935 29.7016 61.875 30 61.875H38.25C38.5484 61.875 38.8345 61.9935 39.0455 62.2045C39.2565 62.4155 39.375 62.7016 39.375 63C39.37 65.4849 38.3807 67.8666 36.6236 69.6237C34.8666 71.3807 32.4849 72.37 30 72.375Z" fill="black"/>
<rect x="70" y="41" width="60" height="44" rx="10" fill="#ECECEC"/>
<path d="M110 63C110 57.48 105.52 53 100 53C94.48 53 90 57.48 90 63C90 67.84 93.44 71.87 98 72.8V66H96V63H98V60.5C98 58.57 99.57 57 101.5 57H104V60H102C101.45 60 101 60.45 101 61V63H104V66H101V72.95C106.05 72.45 110 68.19 110 63Z" fill="black"/>
<rect x="140" y="41" width="60" height="44" rx="10" fill="#ECECEC"/>
<path d="M175.05 71.28C174.07 72.23 173 72.08 171.97 71.63C170.88 71.17 169.88 71.15 168.73 71.63C167.29 72.25 166.53 72.07 165.67 71.28C160.79 66.25 161.51 58.59 167.05 58.31C168.4 58.38 169.34 59.05 170.13 59.11C171.31 58.87 172.44 58.18 173.7 58.27C175.21 58.39 176.35 58.99 177.1 60.07C173.98 61.94 174.72 66.05 177.58 67.2C177.01 68.7 176.27 70.19 175.04 71.29L175.05 71.28ZM170.03 58.25C169.88 56.02 171.69 54.18 173.77 54C174.06 56.58 171.43 58.5 170.03 58.25Z" fill="black"/>
</svg>
